<svg version="1.1" xmlns="http://www.w3.org/2000/svg" viewBox="0 0 1462.42205184513 1468.5908400990786" width="2924.84410369026" height="2937.181680198157">
  <!-- svg-source:excalidraw -->
  
  <defs>
    <style class="style-fonts">
      @font-face {
        font-family: "Virgil";
        src: url("https://excalidraw.com/Virgil.woff2");
      }
      @font-face {
        font-family: "Cascadia";
        src: url("https://excalidraw.com/Cascadia.woff2");
      }
    </style>
  </defs>
  <rect x="0" y="0" width="1462.42205184513" height="1468.5908400990786" fill="transparent"></rect><g stroke-linecap="round" transform="translate(182.96141132270037 237.2301722584716) rotate(0 68.9537836234177 68.6409892420615)"><path d="M9.49 34.75 C9.49 34.75, 9.49 34.75, 9.49 34.75 M9.49 34.75 C9.49 34.75, 9.49 34.75, 9.49 34.75 M8.36 43.5 C12.28 38.24, 19.75 30.02, 34.8 14.49 M6.41 44.14 C15.68 33.56, 24.06 25.08, 33.54 13.64 M2.24 54.14 C15.03 38.67, 28.15 26.14, 39.89 9.6 M3.61 55.12 C13.98 42.26, 24.05 30.82, 40.38 10.74 M-0.25 64.12 C9.87 50.93, 21.36 40.89, 48.36 7.2 M0.28 63.48 C10.97 49.9, 23.34 36.05, 49.61 8.14 M1.27 67.49 C25.06 43.81, 46.66 19.38, 60.34 1.38 M0.62 69.2 C14.12 54.5, 25.6 41.72, 59.82 1.95 M0.94 73.13 C22.52 51.24, 38.63 29.31, 64.71 2.06 M2.35 74.06 C24.6 50.47, 45.27 26.08, 63.66 3.58 M4.13 77.68 C17.96 62.01, 27.68 49.68, 68.48 2.9 M1.73 79.06 C17.8 61.3, 31.56 45.15, 68.7 2.08 M5.16 84.05 C31.9 52.51, 56.13 22.41, 74.04 2.58 M2.78 83.4 C29.73 53.82, 57.44 22.48, 74.21 2.04 M6.34 90.94 C25.69 62.66, 48.57 39.88, 78.75 4.09 M3.8 88.55 C24.44 67.55, 42.89 44.26, 80.2 3.28 M7.61 94.85 C29.42 66.28, 51.99 38.24, 83.27 2.7 M6.51 94.7 C31.73 65.64, 58.28 34.67, 85.29 3.33 M6.19 98.27 C37.79 63.04, 68.67 28.13, 91.22 2.19 M7.22 97.5 C28.15 72.3, 49.12 49.44, 89.85 4.24 M11.66 99.25 C31.27 77.85, 48.88 54.59, 94.89 5.4 M11.37 100.13 C35.07 73.16, 59.92 45.13, 93.22 5.53 M12.85 103.88 C46.25 66.01, 76.01 30.28, 98.15 6.67 M11.97 104.23 C41.27 71.51, 68.63 39.48, 96.13 7.19 M15.58 108.75 C44.03 76.43, 70.29 45.67, 98.89 10.16 M14.83 106.92 C47.1 71.35, 77.32 35.86, 100.59 10.46 M16.98 110.76 C39.64 88.34, 59.62 63.11, 103.92 10.27 M16.34 111.07 C48.17 76.42, 79.51 41.15, 104.37 12.8 M19.12 113.07 C48.41 81.78, 74.48 52.38, 108.06 13.2 M18.62 115.76 C38.85 91.42, 58.88 70.72, 107.51 13.93 M20.06 118.63 C57.44 76.64, 91.48 39.68, 111.08 15.69 M22.12 118.34 C55.33 79.93, 89.14 39.83, 110.84 17.03 M24.8 118.67 C43.99 97.28, 66.47 72.91, 114.72 19.74 M25.97 119.35 C52.97 89.05, 80.88 56.16, 114.41 18.02 M27.03 123.71 C45.86 100.67, 65.28 78.07, 117.69 18.16 M29.35 122.11 C51.59 95.29, 75.46 67.9, 118.06 19.57 M30.7 125.04 C56.32 93.5, 83.31 67.28, 120.02 22.02 M32.44 124.63 C54.05 98.7, 75.46 74.05, 119.27 23.06 M35.75 125.74 C65.87 89.94, 97.01 56.41, 121.36 25.92 M35.72 127.2 C67.88 88.14, 101.31 49.8, 122.87 26.38 M39.73 126.66 C68.03 97.96, 97.17 63.54, 123.97 29.51 M39.12 128.81 C60 105.86, 78.07 83.75, 125.68 29.88 M43.53 132.94 C64.06 107.45, 86.26 83.63, 125.11 32.95 M43.16 130.21 C70.14 98.25, 97.48 65.78, 126.25 34.41 M44.97 132 C68.1 110.68, 86.54 85.67, 128 37.94 M46.08 132.35 C64.24 113.24, 82.41 92, 129.43 36.79 M49.2 135.79 C69.71 113.19, 86.27 92.06, 132.19 41.46 M49.8 135.2 C71.39 108.64, 93.01 82.77, 130.16 42.1 M54.28 134.29 C80.56 103.96, 106.95 74.81, 135.13 45.78 M54.9 135.68 C82.27 102.2, 111.22 69.29, 132.62 44.12 M57.67 134.25 C87.85 103.33, 117.19 69.56, 135.96 47.18 M58.66 136.97 C85.89 106.5, 110.73 75.87, 137.43 46.64 M65.73 136.74 C86.98 112.15, 108.58 88.13, 137.15 50.5 M64.09 136.49 C92.3 103.06, 121.75 70.41, 136.88 52.44 M70.81 136.32 C82.01 122.36, 97.3 103.35, 138.07 58.61 M68.46 137.62 C83.85 120.03, 100.04 101.59, 137.93 57.26 M74.23 138.1 C92.78 115.83, 111.85 93.41, 138.08 61.86 M73.8 137.25 C98.73 107.23, 124.76 79.22, 138.82 61.84 M77.94 137.96 C98.19 112.93, 118.07 92.25, 141.53 65.44 M80.08 136.48 C93.17 120.17, 107.71 104.6, 139.6 67.64 M86.83 136.32 C102.86 118.23, 118.18 97.8, 137.4 73.57 M87.03 134.89 C98.53 121.43, 111 107.62, 139.26 73.64 M94.47 132.63 C107.11 117.67, 121.83 104.07, 136.99 83.47 M93.31 131.58 C111.76 113.49, 128.04 95.68, 134.85 84.77 M103.4 128.88 C110.51 120.26, 121.44 106.02, 130.18 96.89 M102.37 129.11 C112.1 116.84, 122.7 105.76, 131.36 95.95" stroke="#be4bdb" stroke-width="0.5" fill="none"></path><path d="M58.47 1.22 C67.71 -1, 81.17 0.31, 90.91 3.39 C100.65 6.47, 109.72 12.8, 116.89 19.69 C124.06 26.59, 130.3 35.74, 133.91 44.74 C137.53 53.74, 139.61 64.03, 138.59 73.71 C137.57 83.4, 133.01 94.11, 127.8 102.85 C122.59 111.59, 115.62 120.63, 107.33 126.15 C99.03 131.67, 88 134.76, 78.04 135.98 C68.08 137.2, 56.96 136.39, 47.54 133.47 C38.12 130.54, 28.59 125.22, 21.52 118.43 C14.45 111.65, 8.65 101.95, 5.11 92.77 C1.57 83.59, -0.49 73.05, 0.28 63.34 C1.05 53.62, 4.58 42.98, 9.73 34.47 C14.89 25.97, 21.19 17.97, 31.2 12.3 C41.21 6.62, 61.98 2.03, 69.81 0.42 C77.65 -1.2, 78.43 1.4, 78.19 2.58 M99.53 6.37 C108.4 9.81, 116.96 19.83, 123.24 27.67 C129.53 35.5, 135 44.07, 137.24 53.38 C139.47 62.7, 139.27 73.66, 136.67 83.57 C134.07 93.47, 127.85 104.71, 121.63 112.82 C115.41 120.92, 108.3 128.16, 99.35 132.21 C90.4 136.27, 78.05 137.72, 67.93 137.15 C57.81 136.58, 47.8 132.98, 38.63 128.81 C29.47 124.65, 19.11 119.57, 12.96 112.18 C6.81 104.79, 3.49 94.31, 1.72 84.49 C-0.04 74.66, 0.04 63.34, 2.37 53.23 C4.71 43.12, 9.59 31.83, 15.74 23.81 C21.9 15.79, 30.27 9.06, 39.31 5.11 C48.35 1.16, 60.15 -0.02, 69.98 0.14 C79.81 0.3, 93.37 4.66, 98.28 6.07 C103.2 7.48, 99.54 7.15, 99.49 8.6" stroke="#862e9c" stroke-width="1" fill="none"></path></g><g transform="translate(197.415194946118 283.8711615005331) rotate(0 54.49999999999997 22)"><text x="54.5" y="40" font-family="Cascadia, Segoe UI Emoji" font-size="18.357386790156053px" fill="#862e9c" text-anchor="middle" style="white-space: pre;" direction="ltr">subscriber</text></g><g stroke-linecap="round" transform="translate(437.3764282701743 469.7010283221963) rotate(0 58.109375 58.109375)"><path d="M4.01 11.44 C4.01 11.44, 4.01 11.44, 4.01 11.44 M4.01 11.44 C4.01 11.44, 4.01 11.44, 4.01 11.44 M3.75 17.83 C5.77 15.34, 9.96 10.03, 16.87 2.74 M3.75 17.83 C8.37 14.29, 11.04 9.32, 16.87 2.74 M2.83 24.99 C7.33 18.67, 11.92 13.5, 23.17 1.59 M2.83 24.99 C9.08 17.49, 15.38 9.33, 23.17 1.59 M2.57 31.38 C9.82 25.4, 14.22 15.92, 29.47 0.44 M2.57 31.38 C7.77 25.08, 14.47 19.06, 29.47 0.44 M2.31 37.78 C9.27 27.23, 17.91 19.61, 34.46 0.8 M2.31 37.78 C13.08 24.88, 23.47 12.67, 34.46 0.8 M2.7 43.43 C16.61 30.2, 27.84 15.99, 40.1 0.41 M2.7 43.43 C16.97 26.84, 31.4 10.35, 40.1 0.41 M2.44 49.82 C12.71 35.3, 22.44 24.92, 45.09 0.77 M2.44 49.82 C13.49 36.6, 25.95 23.03, 45.09 0.77 M2.84 55.47 C18.27 39.67, 29.52 22.65, 50.73 0.37 M2.84 55.47 C20.83 34.03, 41.29 12.63, 50.73 0.37 M2.57 61.86 C21.1 40.49, 36.94 22.07, 55.72 0.73 M2.57 61.86 C23.19 38.73, 42.6 16.15, 55.72 0.73 M2.31 68.26 C15.26 53.29, 29.31 37.2, 61.36 0.34 M2.31 68.26 C18.26 49.35, 34.76 31.41, 61.36 0.34 M2.71 73.9 C15.91 58.99, 29.76 42.65, 66.35 0.7 M2.71 73.9 C19.59 53.74, 37.52 34.54, 66.35 0.7 M2.45 80.3 C24.16 55.97, 44.69 30.61, 71.33 1.06 M2.45 80.3 C20.27 59.04, 38.29 37.61, 71.33 1.06 M0.87 88.21 C17.21 67.24, 35.14 50.42, 76.98 0.66 M0.87 88.21 C17.28 68.43, 33.43 50.95, 76.98 0.66 M1.92 93.1 C31.73 61.2, 63.2 24.31, 81.96 1.02 M1.92 93.1 C21.81 69.58, 42.09 47.32, 81.96 1.02 M2.32 98.74 C36.45 60.89, 70.7 21.65, 87.61 0.63 M2.32 98.74 C27.01 70.4, 51.78 43.12, 87.61 0.63 M4.68 102.12 C30.47 73.02, 56.82 41, 92.59 0.99 M4.68 102.12 C31.88 70.56, 59.34 38.89, 92.59 0.99 M6.39 106.25 C39.65 66.86, 74.63 23.49, 96.27 2.86 M6.39 106.25 C25.11 85.38, 44.26 63, 96.27 2.86 M8.75 109.63 C37.22 79.3, 62.97 45.17, 100.6 3.97 M8.75 109.63 C43.21 70.27, 79.81 28.5, 100.6 3.97 M11.77 112.26 C32.53 85.42, 54.91 61.9, 105.59 4.33 M11.77 112.26 C39.61 80.39, 66.23 47.74, 105.59 4.33 M15.44 114.13 C33.54 93.14, 52.5 71.09, 107.95 7.71 M15.44 114.13 C34.5 91.68, 55.44 69.45, 107.95 7.71 M19.78 115.24 C50.16 80.34, 79.39 46.57, 110.97 10.34 M19.78 115.24 C47.74 81.79, 78.76 47.36, 110.97 10.34 M23.45 117.11 C60.46 76.34, 95.67 33.98, 113.99 12.96 M23.45 117.11 C56.39 80.02, 90.92 42.98, 113.99 12.96 M29.09 116.72 C48.5 93.53, 68.06 69.09, 115.69 17.09 M29.09 116.72 C51.28 90.2, 76.68 63.44, 115.69 17.09 M34.08 117.08 C53.33 96.69, 70.46 71.91, 116.09 22.74 M34.08 117.08 C53.46 95.15, 72.1 72.08, 116.09 22.74 M39.72 116.68 C62.69 89.38, 87.88 65.48, 117.14 27.63 M39.72 116.68 C66.48 86.31, 94.61 53.7, 117.14 27.63 M44.71 117.04 C60.65 98.02, 77.04 77.52, 118.84 31.76 M44.71 117.04 C63.87 95.39, 81.91 72.31, 118.84 31.76 M49.7 117.4 C66.97 99.29, 81.22 78.28, 119.24 37.4 M49.7 117.4 C77.79 84.77, 105.25 52.51, 119.24 37.4 M55.34 117.01 C75.03 94.13, 94.52 71.81, 118.98 43.8 M55.34 117.01 C72.52 96.17, 89.9 76.66, 118.98 43.8 M60.33 117.37 C81.67 93.38, 101.71 69.37, 118.72 50.2 M60.33 117.37 C76.15 100.11, 91.56 81.7, 118.72 50.2 M65.97 116.97 C83.76 93.89, 103.72 71.35, 119.11 55.84 M65.97 116.97 C84.73 94.66, 103.18 73.79, 119.11 55.84 M70.96 117.33 C87.6 99.56, 103.58 80.28, 118.85 62.24 M70.96 117.33 C83.58 102.41, 95.31 88.53, 118.85 62.24 M76.6 116.94 C87.66 102.91, 98.04 89.96, 118.59 68.64 M76.6 116.94 C93.04 99.1, 108.76 80.49, 118.59 68.64 M81.59 117.3 C89.32 107.37, 99.45 99.56, 118.98 74.28 M81.59 117.3 C91.07 105.96, 101.47 94.36, 118.98 74.28 M87.23 116.9 C94.66 109.16, 100.5 102.5, 118.72 80.68 M87.23 116.9 C96.35 106.38, 105.89 95.37, 118.72 80.68 M93.53 115.75 C99.85 111.59, 104.85 102.14, 118.46 87.08 M93.53 115.75 C98.3 109.53, 104.06 104.07, 118.46 87.08 M99.83 114.61 C103.23 108.9, 108.48 106.74, 116.89 94.98 M99.83 114.61 C104.38 109.5, 108.87 104.09, 116.89 94.98" stroke="#4c6ef5" stroke-width="0.5" fill="none"></path><path d="M29.05 0 M29.05 0 C48.33 1.36, 65.47 0.36, 87.16 0 M29.05 0 C46.12 -0.28, 62.36 0.45, 87.16 0 M87.16 0 C106.27 -1.34, 117.59 10.38, 116.22 29.05 M87.16 0 C106.38 0.3, 118.4 8.08, 116.22 29.05 M116.22 29.05 C114.8 43.44, 118.04 56.13, 116.22 87.16 M116.22 29.05 C115.63 48.89, 115.13 69.53, 116.22 87.16 M116.22 87.16 C115.15 107.77, 106.95 117.62, 87.16 116.22 M116.22 87.16 C115.01 104.49, 108.09 115.38, 87.16 116.22 M87.16 116.22 C63.54 114.22, 42.87 116.79, 29.05 116.22 M87.16 116.22 C66.14 115.64, 46.84 115.11, 29.05 116.22 M29.05 116.22 C8 115.56, 1.26 108.34, 0 87.16 M29.05 116.22 C9.86 117.17, -1.18 108.04, 0 87.16 M0 87.16 C-1.9 71.13, -2.29 51.96, 0 29.05 M0 87.16 C-0.74 73.22, -1.08 56.86, 0 29.05 M0 29.05 C-1.94 10.42, 10.65 -0.74, 29.05 0 M0 29.05 C0.5 9.71, 8.1 0.3, 29.05 0" stroke="#364fc7" stroke-width="1" fill="none"></path></g><g transform="translate(447.9858032701743 515.8104033221963) rotate(0 47.5 12)"><text x="47.5" y="20" font-family="Cascadia, Segoe UI Emoji" font-size="20px" fill="#364fc7" text-anchor="middle" style="white-space: pre;" direction="ltr">computed</text></g><g stroke-linecap="round" transform="translate(629.3367507600483 163.86144005321344) rotate(0 68.95378362341773 68.6409892420615)"><path d="M29.23 12.16 C29.23 12.16, 29.23 12.16, 29.23 12.16 M29.23 12.16 C29.23 12.16, 29.23 12.16, 29.23 12.16 M12.38 37.88 C19.11 30.28, 23.83 25.86, 36.67 8.79 M13.28 37.14 C22 27.8, 30.67 17.13, 37.13 9.35 M10.18 48.42 C19.22 36.71, 28.33 24.82, 43.27 7.72 M10.26 46.61 C20.98 35.18, 31.57 21.02, 45.17 7.04 M5.84 56.71 C17.95 43.67, 26.84 34.05, 54.12 4.33 M6.01 57.12 C18.98 40.84, 32.71 26.01, 53.8 1.93 M3.03 65.62 C21.76 45.38, 37.02 25.82, 58.96 3.27 M2.4 65.8 C22.85 43.82, 42.65 21.33, 59.16 3.51 M2.63 71.49 C17.65 57.79, 28.15 42.95, 65.07 2.2 M3.84 72.73 C19.09 54.14, 33.2 36.95, 63.74 4.25 M4.59 76.26 C27.11 55.63, 46.25 30.6, 66.42 4.07 M4.61 77.52 C18.7 61.56, 32.73 45.88, 68.98 4.33 M5.5 80.4 C32.39 51.71, 58.9 20.61, 73.96 2.34 M5.9 82.77 C30.83 52.43, 55.74 22.3, 73.13 3.46 M7.55 86.14 C23.54 65.77, 40.68 44.89, 78.6 6.05 M6.29 85.77 C30.93 60, 53.08 32.83, 77.66 4.3 M8.22 91.99 C34.43 58.81, 63.11 28.16, 82.21 4.73 M7 91.6 C28.38 68.7, 47.96 45.02, 83.83 4.02 M10.63 97.97 C36.91 63.55, 66.21 33.86, 89.3 4.7 M9.64 96.76 C35.12 66.31, 62 36.17, 89.83 4.99 M13.2 100.68 C41.04 64.83, 74.78 28.62, 94.06 6.58 M11.44 100.77 C37.26 68.38, 65.09 36.76, 93.31 6.87 M15.36 103.23 C34.04 78.54, 56.26 52.82, 95.23 9.26 M14.4 102.65 C44.76 67.18, 77 30.85, 95.8 9.01 M17.14 107.49 C41.12 78.43, 67.13 51.95, 100.58 10.4 M16.46 107.63 C48.04 71.48, 78.27 37.29, 100.61 9.49 M16.87 112.65 C41.23 83.09, 63.89 59.82, 103.82 13.19 M18.66 110.19 C44.24 81.34, 67.92 52.64, 103.33 12.39 M20.85 113.14 C53.04 77.14, 87.21 35.16, 108.3 14.63 M20.26 114.51 C47.55 82.21, 73.83 51.78, 108.97 12.53 M22.36 116.2 C47.25 89.07, 68.72 65.13, 111.37 13.47 M23.33 116.55 C56.72 78.95, 91.33 37.98, 111.82 13.97 M23.31 119.85 C58.35 83.19, 90.5 46.38, 115.31 18.76 M23.87 120.47 C52.05 89.99, 78.74 59.38, 115.93 16.97 M29.24 121.87 C58.15 84.76, 90.68 49.56, 119.07 18.58 M28.29 124.18 C62.03 83.93, 96.58 42.97, 118.3 19.32 M30.98 126.34 C64.5 86.16, 98.42 47.61, 119.2 22.78 M30.61 126.33 C54.92 98.95, 76.01 73.9, 121.32 23.52 M35.7 128.62 C59.43 96.87, 87.21 67.39, 124.9 28 M34.95 127.79 C67.78 89.11, 101.11 51.51, 123.33 26.29 M39.19 130.84 C74.96 89.77, 107.18 50.21, 123.67 28.16 M39.39 129.67 C59.88 104.13, 80.06 82.43, 125.79 29.61 M44.19 131.68 C69.05 102.23, 92.45 72.7, 128.98 34.7 M41.72 131.57 C63.09 107.49, 82.82 83.25, 128.39 33.43 M47.43 131.34 C77.34 95.47, 111.01 57.08, 131.28 37.61 M46.05 133.07 C73.95 101.89, 99.19 71.31, 129.61 37.18 M50.6 136.55 C75.52 106.67, 97.84 76.48, 132.97 38.4 M49.21 135.23 C69.95 113.65, 87.34 91.95, 133.2 39.3 M56.67 136.05 C84.08 101.12, 114 70.38, 134.77 43.87 M54.63 134.59 C82.08 105.26, 107.68 74.51, 134 43.45 M60.95 134.16 C87.76 105.35, 115.46 70.7, 136.03 49.6 M58.9 135.2 C86.9 106.79, 112.68 75.45, 135.79 48.52 M66.05 135.2 C92.17 106.29, 114.85 75.64, 137.73 52.93 M64.14 135.56 C84.41 112.11, 105.14 90.27, 135.76 54.12 M71.52 138.03 C95.05 110.65, 119.21 80.75, 135.49 60.26 M69.28 135.69 C95.8 106.38, 122.75 75.64, 137.05 58.38 M72.91 137.02 C91.71 118.32, 106.54 98.52, 137.87 64.25 M74.49 136.57 C96.08 111.53, 117 85.28, 138.56 63.63 M81.36 134.36 C99.55 116.74, 117.69 97.26, 137.44 69.35 M80.37 136.91 C100.04 113.76, 121.66 91.1, 139.44 68.45 M87.33 132.22 C103.02 112.51, 122.32 94.76, 140.4 73.79 M89.1 131.9 C104.15 115.63, 119.74 98.8, 140.32 74.17 M96.97 129.36 C110.46 113.06, 122.02 99.34, 137.61 83.12 M96.38 130.26 C110.07 114.17, 125.08 96.8, 137.77 82.84 M105 126.78 C112.35 119.07, 121.11 108.67, 133.5 91.85 M103.76 126.4 C112.89 117.53, 120.46 109.83, 134.7 91.48" stroke="#be4bdb" stroke-width="0.5" fill="none"></path><path d="M57.08 1.34 C66.33 -1.05, 78.84 1.07, 88.59 3.7 C98.33 6.33, 108.17 10.71, 115.55 17.12 C122.93 23.53, 129.12 32.95, 132.86 42.15 C136.59 51.36, 138.43 62.25, 137.95 72.35 C137.48 82.46, 134.9 94.06, 130.02 102.78 C125.14 111.51, 116.99 119.13, 108.68 124.69 C100.36 130.24, 90.1 134.51, 80.13 136.13 C70.16 137.76, 58.39 137.11, 48.88 134.42 C39.37 131.74, 30.25 126.76, 23.09 120.02 C15.92 113.29, 9.6 103.18, 5.89 94 C2.19 84.82, 0.22 74.69, 0.86 64.93 C1.51 55.17, 5.09 44.18, 9.78 35.43 C14.46 26.69, 20.4 18.16, 28.96 12.46 C37.52 6.76, 55.44 3.19, 61.13 1.25 C66.83 -0.7, 62.9 -0.07, 63.14 0.8 M53.3 2.46 C61.92 -1.08, 72.75 -1.33, 82.65 0.51 C92.55 2.35, 104.66 7.2, 112.7 13.51 C120.74 19.81, 126.61 29.4, 130.87 38.35 C135.13 47.29, 138.12 57.22, 138.26 67.16 C138.4 77.1, 136.04 88.9, 131.69 97.99 C127.35 107.08, 120.15 115.38, 112.21 121.69 C104.27 128.01, 93.89 133.74, 84.06 135.9 C74.23 138.06, 62.98 137.01, 53.24 134.65 C43.51 132.29, 33.17 127.61, 25.64 121.74 C18.12 115.87, 12.28 108.26, 8.1 99.41 C3.92 90.57, 0.81 78.89, 0.55 68.66 C0.29 58.42, 2.27 47.09, 6.54 38 C10.81 28.9, 18.49 20.2, 26.17 14.08 C33.85 7.96, 48.02 3.1, 52.62 1.26 C57.23 -0.58, 53.3 1.89, 53.79 3.02" stroke="#862e9c" stroke-width="1" fill="none"></path></g><g transform="translate(643.7905343834659 210.50242929527494) rotate(0 54.5 22)"><text x="54.5" y="40" font-family="Cascadia, Segoe UI Emoji" font-size="18.357386790156053px" fill="#862e9c" text-anchor="middle" style="white-space: pre;" direction="ltr">subscriber</text></g><g stroke-linecap="round" transform="translate(604.9818970201743 696.5252470721963) rotate(0 58.109375 58.109375)"><path d="M4.01 11.44 C4.01 11.44, 4.01 11.44, 4.01 11.44 M4.01 11.44 C4.01 11.44, 4.01 11.44, 4.01 11.44 M3.75 17.83 C8.96 12.18, 12.22 8.7, 16.87 2.74 M3.75 17.83 C9.25 12.15, 14.41 5.5, 16.87 2.74 M2.83 24.99 C8.74 18.57, 12.29 14.77, 23.17 1.59 M2.83 24.99 C9.38 16.2, 18.89 6.59, 23.17 1.59 M2.57 31.38 C9.71 24.33, 15.25 15.17, 29.47 0.44 M2.57 31.38 C12.51 20.02, 23.74 6.61, 29.47 0.44 M2.31 37.78 C16.58 22.22, 28.09 7.82, 34.46 0.8 M2.31 37.78 C12.7 25.41, 23.24 13.84, 34.46 0.8 M2.7 43.43 C11.04 35.15, 19.71 25.98, 40.1 0.41 M2.7 43.43 C11.43 34.37, 19.65 25.65, 40.1 0.41 M2.44 49.82 C18 31.32, 31.99 17.14, 45.09 0.77 M2.44 49.82 C17.22 33.26, 29.76 18.88, 45.09 0.77 M2.84 55.47 C21.79 35.19, 36.92 15.87, 50.73 0.37 M2.84 55.47 C17.67 35.92, 34.8 17.69, 50.73 0.37 M2.57 61.86 C21.94 35.95, 43.84 12.46, 55.72 0.73 M2.57 61.86 C16.72 46.02, 30.47 30.46, 55.72 0.73 M2.31 68.26 C26.73 41.79, 49.01 14.72, 61.36 0.34 M2.31 68.26 C15.83 52.61, 29.45 36.2, 61.36 0.34 M2.71 73.9 C26.87 48, 50.21 18.47, 66.35 0.7 M2.71 73.9 C15.29 58.81, 29.64 45.08, 66.35 0.7 M2.45 80.3 C25.97 52.45, 48.97 27.27, 71.33 1.06 M2.45 80.3 C28.19 49.31, 53.43 20.57, 71.33 1.06 M0.87 88.21 C28.35 54.98, 58.99 21.93, 76.98 0.66 M0.87 88.21 C19.9 64.4, 40.36 42.03, 76.98 0.66 M1.92 93.1 C20.61 71.41, 40.98 46.47, 81.96 1.02 M1.92 93.1 C27.12 65.36, 51.21 36.38, 81.96 1.02 M2.32 98.74 C36.32 61.82, 65.68 26.26, 87.61 0.63 M2.32 98.74 C35.15 61.11, 67.31 24.02, 87.61 0.63 M4.68 102.12 C34.96 68.67, 63.29 37.96, 92.59 0.99 M4.68 102.12 C38.67 63.75, 70.88 25.15, 92.59 0.99 M6.39 106.25 C42.03 65.49, 78.9 23.1, 96.27 2.86 M6.39 106.25 C33.85 73.66, 62.42 41.92, 96.27 2.86 M8.75 109.63 C43.01 73.31, 74.63 32.62, 100.6 3.97 M8.75 109.63 C41.2 72.56, 75.06 35.51, 100.6 3.97 M11.77 112.26 C29.35 91.27, 48.43 70.82, 105.59 4.33 M11.77 112.26 C33.73 84.39, 58.52 58.61, 105.59 4.33 M15.44 114.13 C44.63 81.84, 72.16 50.36, 107.95 7.71 M15.44 114.13 C38.18 90.37, 57.45 65.95, 107.95 7.71 M19.78 115.24 C49.85 78.43, 80.49 42.67, 110.97 10.34 M19.78 115.24 C55.49 75.47, 91.62 34.21, 110.97 10.34 M23.45 117.11 C52.47 85.87, 78.85 54.56, 113.99 12.96 M23.45 117.11 C44.54 95.13, 63.31 70.93, 113.99 12.96 M29.09 116.72 C60.52 82.47, 86.73 49.99, 115.69 17.09 M29.09 116.72 C62.14 79.13, 95.16 41.41, 115.69 17.09 M34.08 117.08 C56.41 93.09, 73.36 69.49, 116.09 22.74 M34.08 117.08 C66.64 80.13, 97.93 44.51, 116.09 22.74 M39.72 116.68 C62 89.76, 86.53 63.03, 117.14 27.63 M39.72 116.68 C59.22 92.8, 80.13 69.25, 117.14 27.63 M44.71 117.04 C61.16 97.34, 79.58 76.39, 118.84 31.76 M44.71 117.04 C74.27 82.5, 103.54 47.41, 118.84 31.76 M49.7 117.4 C66.72 98.51, 86.25 76.87, 119.24 37.4 M49.7 117.4 C74.18 87.96, 97.45 60.09, 119.24 37.4 M55.34 117.01 C74.83 95.2, 97.3 71.87, 118.98 43.8 M55.34 117.01 C77.8 91.73, 98.7 65.54, 118.98 43.8 M60.33 117.37 C77.07 96.79, 94.92 76.79, 118.72 50.2 M60.33 117.37 C79.1 94.96, 98.4 72.68, 118.72 50.2 M65.97 116.97 C86.07 94.81, 101.65 75.3, 119.11 55.84 M65.97 116.97 C85.52 94.23, 104.25 73.39, 119.11 55.84 M70.96 117.33 C82.51 107.07, 94.11 94.58, 118.85 62.24 M70.96 117.33 C88 98.67, 103 80.23, 118.85 62.24 M76.6 116.94 C90.88 102.39, 100.66 88.5, 118.59 68.64 M76.6 116.94 C92.2 98.2, 107.58 79.16, 118.59 68.64 M81.59 117.3 C91.49 107.93, 100.66 94.87, 118.98 74.28 M81.59 117.3 C93.97 102.42, 106.69 88.18, 118.98 74.28 M87.23 116.9 C99 103.43, 109.92 89.92, 118.72 80.68 M87.23 116.9 C99.2 101.83, 112.51 88.74, 118.72 80.68 M93.53 115.75 C102.74 107.91, 110.93 97.17, 118.46 87.08 M93.53 115.75 C100.66 106.62, 109.42 96.71, 118.46 87.08 M99.83 114.61 C105.52 108.82, 111.6 100.94, 116.89 94.98 M99.83 114.61 C106.97 106.89, 113.39 100.15, 116.89 94.98" stroke="#4c6ef5" stroke-width="0.5" fill="none"></path><path d="M29.05 0 M29.05 0 C53.44 1.05, 75.18 -1.88, 87.16 0 M29.05 0 C45.15 -0.02, 62.23 -0.27, 87.16 0 M87.16 0 C107.47 1.71, 116.67 8.43, 116.22 29.05 M87.16 0 C107.07 1.58, 115.39 11.06, 116.22 29.05 M116.22 29.05 C117.39 46, 115.65 63.79, 116.22 87.16 M116.22 29.05 C116.71 49.44, 116.77 71.39, 116.22 87.16 M116.22 87.16 C115.16 106.55, 108.22 114.6, 87.16 116.22 M116.22 87.16 C117.36 106.04, 105.73 117.98, 87.16 116.22 M87.16 116.22 C72.62 115.44, 62.6 114.72, 29.05 116.22 M87.16 116.22 C70.37 116.45, 51.86 115.56, 29.05 116.22 M29.05 116.22 C9.12 117.97, 1.64 107.5, 0 87.16 M29.05 116.22 C8.74 117.42, -0.4 107.98, 0 87.16 M0 87.16 C-1.19 68.26, 0.42 44.19, 0 29.05 M0 87.16 C-0.6 69.77, -0.82 50.69, 0 29.05 M0 29.05 C-0.55 9.49, 7.93 1.01, 29.05 0 M0 29.05 C1 8.4, 10.93 1.18, 29.05 0" stroke="#364fc7" stroke-width="1" fill="none"></path></g><g transform="translate(615.5912720201743 742.6346220721963) rotate(0 47.5 12)"><text x="47.5" y="20" font-family="Cascadia, Segoe UI Emoji" font-size="20px" fill="#364fc7" text-anchor="middle" style="white-space: pre;" direction="ltr">computed</text></g><g stroke-linecap="round" transform="translate(272.9818970201743 678.5252470721963) rotate(0 58.109375 58.109375)"><path d="M4.01 11.44 C4.01 11.44, 4.01 11.44, 4.01 11.44 M4.01 11.44 C4.01 11.44, 4.01 11.44, 4.01 11.44 M3.75 17.83 C10.15 12.71, 14.39 6.87, 16.87 2.74 M3.75 17.83 C7.64 14.44, 10.47 9.87, 16.87 2.74 M2.83 24.99 C9.12 16.5, 14.08 13.77, 23.17 1.59 M2.83 24.99 C7.02 20.01, 12.27 14.23, 23.17 1.59 M2.57 31.38 C10.67 23.04, 17.2 17.12, 29.47 0.44 M2.57 31.38 C7.76 25.45, 13.51 18.13, 29.47 0.44 M2.31 37.78 C11.13 29.5, 15.95 21.88, 34.46 0.8 M2.31 37.78 C11.72 27.78, 20.79 17.95, 34.46 0.8 M2.7 43.43 C17 28.81, 30.82 13.5, 40.1 0.41 M2.7 43.43 C17.65 27.53, 30.42 10.74, 40.1 0.41 M2.44 49.82 C19.46 32.28, 34.76 10.37, 45.09 0.77 M2.44 49.82 C19.52 31.16, 35.8 10.61, 45.09 0.77 M2.84 55.47 C20.61 32.81, 36.45 14.2, 50.73 0.37 M2.84 55.47 C15.53 40.11, 26.81 26.12, 50.73 0.37 M2.57 61.86 C14.24 49.6, 25.65 36.45, 55.72 0.73 M2.57 61.86 C18.7 43.93, 34.37 25.06, 55.72 0.73 M2.31 68.26 C20.51 48.93, 36.89 29.7, 61.36 0.34 M2.31 68.26 C14.23 53.8, 27.7 39.02, 61.36 0.34 M2.71 73.9 C22.43 50.68, 41.22 31.49, 66.35 0.7 M2.71 73.9 C24.52 48.45, 46.42 22.67, 66.35 0.7 M2.45 80.3 C24.83 54.93, 44.18 28.25, 71.33 1.06 M2.45 80.3 C29 50.26, 53.98 21.56, 71.33 1.06 M0.87 88.21 C19 65.48, 36.09 45.12, 76.98 0.66 M0.87 88.21 C24.54 60.7, 48.69 34.02, 76.98 0.66 M1.92 93.1 C17.86 72.98, 38.4 50.38, 81.96 1.02 M1.92 93.1 C30.3 61.93, 57.88 28.24, 81.96 1.02 M2.32 98.74 C34.21 61.78, 66.71 23.25, 87.61 0.63 M2.32 98.74 C33.58 62.81, 65.42 25.99, 87.61 0.63 M4.68 102.12 C35.5 67.6, 67.22 28.89, 92.59 0.99 M4.68 102.12 C34.41 67.64, 64.04 33.83, 92.59 0.99 M6.39 106.25 C28.31 77.97, 52.54 50.87, 96.27 2.86 M6.39 106.25 C39.41 68.89, 73.13 30.08, 96.27 2.86 M8.75 109.63 C30.73 83.91, 53 61.61, 100.6 3.97 M8.75 109.63 C44.05 68.45, 79.75 28.32, 100.6 3.97 M11.77 112.26 C49.08 67.6, 84.46 27.6, 105.59 4.33 M11.77 112.26 C44.65 76.12, 76.26 38.97, 105.59 4.33 M15.44 114.13 C50.94 78.03, 85.13 36.01, 107.95 7.71 M15.44 114.13 C44.84 78.2, 75.23 42.82, 107.95 7.71 M19.78 115.24 C40.53 87.76, 67.3 61.09, 110.97 10.34 M19.78 115.24 C52.35 78.41, 85.62 40.09, 110.97 10.34 M23.45 117.11 C42.47 96.88, 63.58 72.61, 113.99 12.96 M23.45 117.11 C46.96 89.91, 71.9 59.88, 113.99 12.96 M29.09 116.72 C55.58 85.56, 83.55 54.25, 115.69 17.09 M29.09 116.72 C58.61 85.03, 86.73 50.46, 115.69 17.09 M34.08 117.08 C49.43 98.26, 66.63 76.96, 116.09 22.74 M34.08 117.08 C61.4 87.09, 86.52 57.96, 116.09 22.74 M39.72 116.68 C55.52 96.51, 71.45 78.61, 117.14 27.63 M39.72 116.68 C68.22 83.64, 97.26 51.4, 117.14 27.63 M44.71 117.04 C60.95 99.69, 74.43 81.77, 118.84 31.76 M44.71 117.04 C60.72 98.76, 76.9 81.81, 118.84 31.76 M49.7 117.4 C73.53 92.74, 92.23 65.07, 119.24 37.4 M49.7 117.4 C65.43 99.29, 81.38 82.61, 119.24 37.4 M55.34 117.01 C79.85 90.65, 103.81 60.66, 118.98 43.8 M55.34 117.01 C74.89 94.89, 92.82 73.58, 118.98 43.8 M60.33 117.37 C76.99 98.81, 90.51 81.84, 118.72 50.2 M60.33 117.37 C76.46 100.94, 90.44 82.02, 118.72 50.2 M65.97 116.97 C81.43 99.98, 95.93 80.83, 119.11 55.84 M65.97 116.97 C85.73 95.06, 106.36 73.12, 119.11 55.84 M70.96 117.33 C88.45 97.89, 106.52 74.82, 118.85 62.24 M70.96 117.33 C85.1 102.07, 98.89 84.62, 118.85 62.24 M76.6 116.94 C89.25 100.95, 102.46 84.06, 118.59 68.64 M76.6 116.94 C87.22 106.25, 96.85 95.24, 118.59 68.64 M81.59 117.3 C89.92 108.15, 96.75 99.2, 118.98 74.28 M81.59 117.3 C94.46 102.98, 106.09 88.3, 118.98 74.28 M87.23 116.9 C99.39 103.06, 108.01 92.11, 118.72 80.68 M87.23 116.9 C97.33 106.05, 108.14 94.53, 118.72 80.68 M93.53 115.75 C98.4 106.76, 106.17 100.83, 118.46 87.08 M93.53 115.75 C99 109.21, 104.85 102.96, 118.46 87.08 M99.83 114.61 C103.24 110.01, 109.45 103.85, 116.89 94.98 M99.83 114.61 C105.24 109.51, 110.71 103.09, 116.89 94.98" stroke="#4c6ef5" stroke-width="0.5" fill="none"></path><path d="M29.05 0 M29.05 0 C40.4 -1.57, 53.49 -1.04, 87.16 0 M29.05 0 C42.98 -1.12, 56.69 0.19, 87.16 0 M87.16 0 C105.81 1.2, 115.87 10.52, 116.22 29.05 M87.16 0 C108.64 1.07, 116.81 8.75, 116.22 29.05 M116.22 29.05 C116.67 52.59, 114.83 75.58, 116.22 87.16 M116.22 29.05 C116.76 44.5, 116.41 61.36, 116.22 87.16 M116.22 87.16 C115.52 108.07, 105.09 114.46, 87.16 116.22 M116.22 87.16 C117.52 105.02, 105.26 118.4, 87.16 116.22 M87.16 116.22 C75.95 117.38, 62.85 114.87, 29.05 116.22 M87.16 116.22 C75.94 117.21, 62.66 117.25, 29.05 116.22 M29.05 116.22 C9.34 117.47, 1.16 108.45, 0 87.16 M29.05 116.22 C11.11 115.48, 2.19 107.66, 0 87.16 M0 87.16 C-0.69 73.3, 0.97 59.37, 0 29.05 M0 87.16 C-0.72 74.14, 0.59 59.54, 0 29.05 M0 29.05 C1.09 10.71, 7.82 1.12, 29.05 0 M0 29.05 C1.98 11.79, 10.86 2.16, 29.05 0" stroke="#364fc7" stroke-width="1" fill="none"></path></g><g transform="translate(283.5912720201743 724.6346220721963) rotate(0 47.5 12)"><text x="47.5" y="20" font-family="Cascadia, Segoe UI Emoji" font-size="20px" fill="#364fc7" text-anchor="middle" style="white-space: pre;" direction="ltr">computed</text></g><g stroke-linecap="round" transform="translate(425.9818970201743 915.5252470721962) rotate(0 58.109375 58.109375)"><path d="M4.01 11.44 C4.01 11.44, 4.01 11.44, 4.01 11.44 M4.01 11.44 C4.01 11.44, 4.01 11.44, 4.01 11.44 M3.75 17.83 C9.67 13.23, 14.15 6.64, 16.87 2.74 M3.75 17.83 C9.14 12.74, 12.26 6.98, 16.87 2.74 M2.83 24.99 C10.93 14.89, 19.57 7.06, 23.17 1.59 M2.83 24.99 C8.76 19.39, 13.55 13.06, 23.17 1.59 M2.57 31.38 C12.33 18.93, 24.11 7.3, 29.47 0.44 M2.57 31.38 C11.14 21.56, 21.12 9.74, 29.47 0.44 M2.31 37.78 C12.85 26.61, 23.58 15.13, 34.46 0.8 M2.31 37.78 C12.41 25.61, 24.4 13.1, 34.46 0.8 M2.7 43.43 C14.02 29.71, 29.43 11.42, 40.1 0.41 M2.7 43.43 C12.24 31.84, 23.42 19.43, 40.1 0.41 M2.44 49.82 C13.37 38.21, 25.36 24.62, 45.09 0.77 M2.44 49.82 C13.28 37.92, 21.81 25.11, 45.09 0.77 M2.84 55.47 C18.29 39.73, 30.34 20.63, 50.73 0.37 M2.84 55.47 C18.59 38.19, 34.11 20.72, 50.73 0.37 M2.57 61.86 C23.2 40.3, 43.09 17.23, 55.72 0.73 M2.57 61.86 C21.67 40.89, 40.55 18.87, 55.72 0.73 M2.31 68.26 C23.3 45.13, 42.45 24.49, 61.36 0.34 M2.31 68.26 C17.91 50.01, 34.05 31.06, 61.36 0.34 M2.71 73.9 C26.61 44.61, 52.12 15.19, 66.35 0.7 M2.71 73.9 C21.39 52.83, 39.41 30.44, 66.35 0.7 M2.45 80.3 C14 65.62, 28.62 47.19, 71.33 1.06 M2.45 80.3 C28.88 51.09, 53.1 21.27, 71.33 1.06 M0.87 88.21 C20.45 65.31, 39.25 43.91, 76.98 0.66 M0.87 88.21 C23.25 62.61, 44.66 39.36, 76.98 0.66 M1.92 93.1 C17.64 74.08, 37.95 52.69, 81.96 1.02 M1.92 93.1 C21.16 69.79, 41.03 47.04, 81.96 1.02 M2.32 98.74 C24.81 71.53, 49.08 45.19, 87.61 0.63 M2.32 98.74 C35.5 60.04, 69.12 22.08, 87.61 0.63 M4.68 102.12 C27.57 76.31, 50.48 49.2, 92.59 0.99 M4.68 102.12 C39.43 62.7, 71.85 24.51, 92.59 0.99 M6.39 106.25 C30.52 77.14, 57.83 48.76, 96.27 2.86 M6.39 106.25 C33.29 75.31, 60.06 44.71, 96.27 2.86 M8.75 109.63 C45.28 68.09, 78.87 28.51, 100.6 3.97 M8.75 109.63 C33.14 81.75, 56.18 52.72, 100.6 3.97 M11.77 112.26 C44.02 75.26, 79.19 35.67, 105.59 4.33 M11.77 112.26 C40.04 79.15, 71.65 45.1, 105.59 4.33 M15.44 114.13 C38.52 87.18, 58.67 61.69, 107.95 7.71 M15.44 114.13 C37.05 87.96, 58.07 65.18, 107.95 7.71 M19.78 115.24 C46.45 81.52, 77.41 49.25, 110.97 10.34 M19.78 115.24 C55.14 75.48, 91.05 36.46, 110.97 10.34 M23.45 117.11 C42.37 92.6, 64.53 70.47, 113.99 12.96 M23.45 117.11 C42.63 94.15, 62.04 72.26, 113.99 12.96 M29.09 116.72 C56.81 84.15, 88.8 49.46, 115.69 17.09 M29.09 116.72 C51.88 90.03, 74.52 64.61, 115.69 17.09 M34.08 117.08 C57.76 89.77, 83.97 58.2, 116.09 22.74 M34.08 117.08 C67.67 80.39, 98.28 43.66, 116.09 22.74 M39.72 116.68 C54.07 97.33, 70.07 79.75, 117.14 27.63 M39.72 116.68 C64.91 88.92, 89.25 60.12, 117.14 27.63 M44.71 117.04 C66.19 94.39, 85.35 72.53, 118.84 31.76 M44.71 117.04 C72.01 86.79, 98.9 54.13, 118.84 31.76 M49.7 117.4 C68.8 96.32, 87.21 75.52, 119.24 37.4 M49.7 117.4 C75.82 87.59, 101.98 57.67, 119.24 37.4 M55.34 117.01 C72.53 100.62, 86.43 81.06, 118.98 43.8 M55.34 117.01 C76.99 92.31, 98.98 66.12, 118.98 43.8 M60.33 117.37 C73.38 102.25, 91.36 82.57, 118.72 50.2 M60.33 117.37 C76.88 98.88, 92.7 80.08, 118.72 50.2 M65.97 116.97 C82.67 96.93, 101.25 79.16, 119.11 55.84 M65.97 116.97 C85.62 92.59, 107.72 68.59, 119.11 55.84 M70.96 117.33 C82.93 104.53, 95.68 91.04, 118.85 62.24 M70.96 117.33 C84.22 102.44, 95.66 88.03, 118.85 62.24 M76.6 116.94 C86.18 108.15, 95.87 97.74, 118.59 68.64 M76.6 116.94 C93.64 99.15, 108.38 80.7, 118.59 68.64 M81.59 117.3 C93.65 105.73, 104.28 91.26, 118.98 74.28 M81.59 117.3 C89.35 107.68, 97.98 96.47, 118.98 74.28 M87.23 116.9 C96.43 103.87, 110.69 92.2, 118.72 80.68 M87.23 116.9 C100.07 102.19, 110.8 88.97, 118.72 80.68 M93.53 115.75 C102.73 107.23, 108.79 99.28, 118.46 87.08 M93.53 115.75 C101.12 106.4, 108.66 98.56, 118.46 87.08 M99.83 114.61 C106.42 107.56, 114.9 100.43, 116.89 94.98 M99.83 114.61 C106.14 107.18, 111.11 100.62, 116.89 94.98" stroke="#4c6ef5" stroke-width="0.5" fill="none"></path><path d="M29.05 0 M29.05 0 C45.58 0.18, 57.42 0.19, 87.16 0 M29.05 0 C50.32 0.07, 72.84 0.12, 87.16 0 M87.16 0 C107.05 -0.81, 118.09 11, 116.22 29.05 M87.16 0 C107.17 0.08, 116.98 7.65, 116.22 29.05 M116.22 29.05 C116.12 50.42, 114.48 69.4, 116.22 87.16 M116.22 29.05 C115.29 44.35, 116.58 60.76, 116.22 87.16 M116.22 87.16 C115.11 108.43, 104.71 116.16, 87.16 116.22 M116.22 87.16 C117.1 107.58, 107.61 116.13, 87.16 116.22 M87.16 116.22 C76.06 117.69, 62.41 115.23, 29.05 116.22 M87.16 116.22 C67.28 117.54, 46.85 116.26, 29.05 116.22 M29.05 116.22 C11.59 117.19, -1.36 106.69, 0 87.16 M29.05 116.22 C11.31 115.47, -0.43 107.7, 0 87.16 M0 87.16 C0.19 70.34, 1.4 57.89, 0 29.05 M0 87.16 C-1.25 73.55, 0.55 59.73, 0 29.05 M0 29.05 C1.02 11.56, 11.35 -0.98, 29.05 0 M0 29.05 C-1.41 10.88, 11.89 0.85, 29.05 0" stroke="#364fc7" stroke-width="1" fill="none"></path></g><g transform="translate(436.5912720201743 961.6346220721962) rotate(0 47.5 12)"><text x="47.5" y="20" font-family="Cascadia, Segoe UI Emoji" font-size="20px" fill="#364fc7" text-anchor="middle" style="white-space: pre;" direction="ltr">computed</text></g><g stroke-linecap="round" transform="translate(846.9818970201743 874.5252470721962) rotate(0 58.109375 58.109375)"><path d="M4.01 11.44 C4.01 11.44, 4.01 11.44, 4.01 11.44 M4.01 11.44 C4.01 11.44, 4.01 11.44, 4.01 11.44 M3.75 17.83 C8.1 15.79, 10.36 9.24, 16.87 2.74 M3.75 17.83 C7.1 13.24, 11.18 8.91, 16.87 2.74 M2.83 24.99 C11.18 18.25, 17.75 9.38, 23.17 1.59 M2.83 24.99 C11.17 16.26, 17.42 8.51, 23.17 1.59 M2.57 31.38 C8.94 22.74, 16.42 17.17, 29.47 0.44 M2.57 31.38 C8.64 23.41, 16.76 15.51, 29.47 0.44 M2.31 37.78 C11.95 23.12, 25.46 11.95, 34.46 0.8 M2.31 37.78 C13.07 24.59, 24.01 13.53, 34.46 0.8 M2.7 43.43 C12.63 31.98, 21.78 23.36, 40.1 0.41 M2.7 43.43 C12.58 32.92, 21.55 23.07, 40.1 0.41 M2.44 49.82 C17.11 35.6, 30.19 16.37, 45.09 0.77 M2.44 49.82 C12.75 39.73, 21.73 27.88, 45.09 0.77 M2.84 55.47 C11.69 44.93, 22.17 34.46, 50.73 0.37 M2.84 55.47 C17.01 40.43, 30.32 25.02, 50.73 0.37 M2.57 61.86 C17.66 42.82, 36.67 23.44, 55.72 0.73 M2.57 61.86 C19.32 44.14, 34.64 25.32, 55.72 0.73 M2.31 68.26 C23.66 40.43, 48.41 13.67, 61.36 0.34 M2.31 68.26 C16.89 50.62, 31.11 33.9, 61.36 0.34 M2.71 73.9 C19.44 57.14, 34.26 38.93, 66.35 0.7 M2.71 73.9 C19.95 54.21, 36.12 36.24, 66.35 0.7 M2.45 80.3 C20.72 59.29, 40.55 34.41, 71.33 1.06 M2.45 80.3 C17.71 62.39, 33.43 44.1, 71.33 1.06 M0.87 88.21 C26.94 59.89, 50.57 30.41, 76.98 0.66 M0.87 88.21 C29.25 56.17, 56.31 26.58, 76.98 0.66 M1.92 93.1 C30.09 62.9, 54.68 33.15, 81.96 1.02 M1.92 93.1 C27.73 63.69, 52.32 35.39, 81.96 1.02 M2.32 98.74 C24.43 74.79, 44.5 51.1, 87.61 0.63 M2.32 98.74 C32.63 65.22, 61.37 31.86, 87.61 0.63 M4.68 102.12 C33.94 70.03, 61.82 33.72, 92.59 0.99 M4.68 102.12 C28.11 75.05, 50.63 49.84, 92.59 0.99 M6.39 106.25 C42.26 65.75, 76.66 25.72, 96.27 2.86 M6.39 106.25 C36.33 69.69, 68.52 31.95, 96.27 2.86 M8.75 109.63 C37.45 76.69, 67.59 39.91, 100.6 3.97 M8.75 109.63 C27.69 86.36, 48 64.72, 100.6 3.97 M11.77 112.26 C41.13 74.3, 74.6 42.22, 105.59 4.33 M11.77 112.26 C47.55 72.74, 81.22 31.88, 105.59 4.33 M15.44 114.13 C40.3 88.91, 58.79 63.03, 107.95 7.71 M15.44 114.13 C48.9 74.45, 81.89 37.18, 107.95 7.71 M19.78 115.24 C39.28 89.8, 62.17 66.56, 110.97 10.34 M19.78 115.24 C55.98 74.79, 89.75 35.85, 110.97 10.34 M23.45 117.11 C48.36 91.35, 69.02 65.87, 113.99 12.96 M23.45 117.11 C51.5 82.98, 81.22 51.12, 113.99 12.96 M29.09 116.72 C53.01 92.47, 71.58 68.9, 115.69 17.09 M29.09 116.72 C47.67 94.19, 67.45 73.01, 115.69 17.09 M34.08 117.08 C54.12 94.28, 76.19 66.58, 116.09 22.74 M34.08 117.08 C60.34 85.98, 86.38 55.97, 116.09 22.74 M39.72 116.68 C62.4 93.46, 83.25 69.51, 117.14 27.63 M39.72 116.68 C64.19 89.26, 89.44 60.36, 117.14 27.63 M44.71 117.04 C73.41 85.71, 102.6 53.35, 118.84 31.76 M44.71 117.04 C61.17 98.96, 77.42 80.28, 118.84 31.76 M49.7 117.4 C76.56 87.7, 103.12 57.4, 119.24 37.4 M49.7 117.4 C75.14 89.48, 100.92 59.89, 119.24 37.4 M55.34 117.01 C73.05 95.73, 91.7 75.45, 118.98 43.8 M55.34 117.01 C75.2 94.37, 94.87 74.09, 118.98 43.8 M60.33 117.37 C76.04 102.46, 89.14 86.09, 118.72 50.2 M60.33 117.37 C73.31 100.77, 87.84 85.29, 118.72 50.2 M65.97 116.97 C86.96 91.13, 106.65 69.67, 119.11 55.84 M65.97 116.97 C81.19 100.19, 96.21 83.78, 119.11 55.84 M70.96 117.33 C86.95 102.85, 99.04 84.6, 118.85 62.24 M70.96 117.33 C84.09 102.55, 98.6 87.67, 118.85 62.24 M76.6 116.94 C91.82 102.26, 106.52 83.5, 118.59 68.64 M76.6 116.94 C89.53 103.21, 101.81 88.82, 118.59 68.64 M81.59 117.3 C96.35 101.41, 108.37 86.95, 118.98 74.28 M81.59 117.3 C89.77 106.7, 97.91 98.68, 118.98 74.28 M87.23 116.9 C98.43 105.54, 107.54 90.16, 118.72 80.68 M87.23 116.9 C96.83 107.4, 105.53 96.19, 118.72 80.68 M93.53 115.75 C104.07 106.29, 109.75 96.67, 118.46 87.08 M93.53 115.75 C100.3 108.66, 105.93 102.51, 118.46 87.08 M99.83 114.61 C105.72 108.07, 110.87 99.05, 116.89 94.98 M99.83 114.61 C104.84 110.45, 109.05 103.84, 116.89 94.98" stroke="#4c6ef5" stroke-width="0.5" fill="none"></path><path d="M29.05 0 M29.05 0 C49.04 -0.14, 67.46 2.04, 87.16 0 M29.05 0 C50.13 0.9, 69.61 0.27, 87.16 0 M87.16 0 C107.19 -1.77, 116.99 9.28, 116.22 29.05 M87.16 0 C105.32 0.02, 118.16 7.82, 116.22 29.05 M116.22 29.05 C117.63 47.92, 114.33 70.8, 116.22 87.16 M116.22 29.05 C114.98 42.63, 116.28 56.72, 116.22 87.16 M116.22 87.16 C117.16 106.46, 104.96 114.36, 87.16 116.22 M116.22 87.16 C115.57 108.55, 108.42 117.34, 87.16 116.22 M87.16 116.22 C73.38 117.28, 59.01 117.36, 29.05 116.22 M87.16 116.22 C70.91 116.58, 56.71 116.18, 29.05 116.22 M29.05 116.22 C9.31 117.24, -0.81 105.19, 0 87.16 M29.05 116.22 C9.05 115.99, -2.02 107.7, 0 87.16 M0 87.16 C1.35 65.35, 1.44 48.98, 0 29.05 M0 87.16 C0.54 63.94, -0.91 42.2, 0 29.05 M0 29.05 C1.92 10.42, 9.84 -1.04, 29.05 0 M0 29.05 C-1.17 9.2, 11.31 0.59, 29.05 0" stroke="#364fc7" stroke-width="1" fill="none"></path></g><g transform="translate(857.5912720201743 920.6346220721962) rotate(0 47.5 12)"><text x="47.5" y="20" font-family="Cascadia, Segoe UI Emoji" font-size="20px" fill="#364fc7" text-anchor="middle" style="white-space: pre;" direction="ltr">computed</text></g><g stroke-linecap="round" transform="translate(422.6976023463244 1172.3605877183038) rotate(0 50.9109988132912 50.68005174206155)"><path d="M5.66 28.77 C5.66 28.77, 5.66 28.77, 5.66 28.77 M5.66 28.77 C5.66 28.77, 5.66 28.77, 5.66 28.77 M2.13 36.45 C9.88 33.33, 13.3 26.56, 25.29 11.82 M4.22 37.77 C9.4 31.22, 13.52 24.28, 26.53 12.45 M1.53 46.72 C6.93 37.21, 15.82 29.87, 32.61 6.85 M1.81 45.04 C9.64 36.28, 18.33 25.54, 34.15 8.63 M-1.99 55.05 C10.15 41.89, 19.58 34.12, 42.77 3.89 M-0.24 54.27 C15.6 34.92, 32.41 16.84, 42.51 4.53 M3.11 59.02 C22.74 35, 43 13.13, 49.76 2.35 M2.13 57.76 C21.9 34.57, 40.46 13.75, 49.8 1.35 M4.84 60.84 C17.76 47.08, 31.96 30.71, 53.63 3.71 M4.24 62.41 C16.98 46.23, 29.65 31.98, 54.54 2.84 M7.07 65.47 C17.84 47.62, 34.74 33.67, 59.24 2.92 M5.58 66.3 C24.89 41.11, 46.58 19.37, 59.9 3.15 M5.99 69.13 C24.19 46.65, 43.12 28.59, 63.52 2.99 M7.75 69.73 C22.3 50.63, 39.71 32.28, 64.36 3.96 M10.43 74.82 C21.11 57.9, 36.51 42.53, 66.33 7.48 M10.27 73.24 C24.44 56.67, 39.16 40.17, 68.19 5.42 M8.88 77.87 C23.84 61.75, 41.33 40.45, 74.17 4.69 M9.15 79.65 C28.89 56.15, 49.51 33.18, 72.55 6.92 M11.03 82.82 C30.99 58.6, 49.74 36.93, 75.25 9.26 M13.88 81.43 C25.18 66.4, 36.91 51.48, 76.12 9.1 M16.32 85.04 C33.86 65.77, 51.23 42.34, 78.31 10.06 M15.5 84.86 C36.75 61.61, 56.44 38.55, 79.42 12.32 M18.79 88.41 C43.35 60.8, 64.23 35.43, 81.1 14.75 M18.93 86.17 C32.54 70.75, 46.6 54.54, 82.75 13.67 M23.44 89.36 C40.54 68.1, 56.58 51.07, 83.36 16.55 M22.87 90.08 C39.54 67.8, 56.52 48.87, 84.72 16.23 M24.59 94.59 C42.79 70.33, 61.86 51.44, 89.75 19.17 M23.62 92.05 C42.98 72.74, 61.71 51.56, 88.67 18.55 M27.48 95.08 C48.42 70.72, 71.6 45.94, 92.96 21.88 M28.22 94.76 C49.97 69.64, 70.16 45.9, 91.21 22.2 M31.38 99.59 C42.68 82.91, 57.83 65.88, 92.6 24.48 M31.01 98.13 C50.32 75.75, 69.82 52.87, 94.72 25.2 M37.12 98.4 C48.98 84.22, 60.43 71.7, 96.96 29.79 M34.7 97.57 C48.11 82.63, 60.95 68.49, 96.55 29.08 M38.94 100.6 C52.87 84.07, 68.75 68.41, 97.91 32.18 M39.7 99.73 C61.06 73.49, 84.48 46.43, 97.41 33.83 M43.95 101.3 C54.81 84.41, 69.3 71.14, 97.99 39.02 M45.1 100.23 C55.99 85.7, 66.45 73.14, 99.98 37.94 M48.64 102.13 C68.45 81.74, 86.59 58.41, 102.71 42.23 M48.66 100.69 C61.47 86.27, 72.32 72.56, 100.71 40.38 M54.4 103.02 C68.23 83.8, 88.83 64.94, 102.88 48.02 M53.83 102.95 C72.56 80.96, 90.28 58.97, 101.65 46.85 M55.96 102.16 C70.42 88.64, 83.31 71.49, 100.97 54.64 M57.71 103.59 C70.7 89.07, 81.39 75.69, 100.31 54.06 M64.29 100.52 C72.03 91.28, 80 82.94, 100.01 62.58 M65.43 100.9 C77.7 85.27, 90.74 71.7, 98.05 62.42 M71.78 98.12 C82.45 85.24, 90.14 75.33, 96.04 67.12 M72.82 97.7 C81.66 87.05, 91.77 75.78, 98.04 69.08" stroke="#fa5252" stroke-width="0.5" fill="none"></path><path d="M72.12 5.12 C79.69 7.99, 87.12 15.96, 92.02 22.83 C96.93 29.7, 100.71 38.1, 101.56 46.34 C102.41 54.58, 100.88 64.59, 97.1 72.28 C93.32 79.96, 85.86 87.62, 78.88 92.46 C71.89 97.3, 63.39 100.6, 55.16 101.33 C46.94 102.05, 37.13 100.62, 29.53 96.81 C21.93 93.01, 14.57 85.51, 9.57 78.5 C4.57 71.5, 0.23 63.01, -0.47 54.77 C-1.16 46.54, 1.53 36.6, 5.39 29.09 C9.25 21.57, 15.68 14.66, 22.69 9.69 C29.7 4.73, 38.45 -0.19, 47.44 -0.71 C56.44 -1.23, 71.66 5.01, 76.66 6.57 C81.66 8.13, 77.84 7.89, 77.43 8.64 M45.27 -0.41 C53.42 -1.93, 65.63 1.86, 73.54 5.65 C81.45 9.45, 87.88 15.59, 92.73 22.35 C97.58 29.12, 102.04 37.82, 102.64 46.24 C103.24 54.66, 99.93 65.02, 96.31 72.86 C92.7 80.71, 87.7 88.82, 80.95 93.3 C74.21 97.78, 64.61 99.17, 55.86 99.73 C47.12 100.29, 36.32 99.73, 28.48 96.67 C20.65 93.6, 13.44 88.09, 8.87 81.33 C4.3 74.57, 1.89 64.98, 1.07 56.11 C0.25 47.24, 0.5 36.11, 3.93 28.11 C7.37 20.11, 14.76 12.71, 21.69 8.11 C28.62 3.5, 41.45 1.48, 45.52 0.48 C49.6 -0.53, 45.99 1.12, 46.14 2.08" stroke="#c92a2a" stroke-width="1" fill="none"></path></g><g transform="translate(445.60860115961555 1200.0406394603654) rotate(0 28 23)"><text x="28" y="41" font-family="Cascadia, Segoe UI Emoji" font-size="18.729021403066273px" fill="#c92a2a" text-anchor="middle" style="white-space: pre;" direction="ltr">value</text></g><g stroke-linecap="round" transform="translate(694.541947283737 1185.9478441662525) rotate(0 50.910998813291144 50.68005174206155)"><path d="M19.95 10.71 C19.95 10.71, 19.95 10.71, 19.95 10.71 M19.95 10.71 C19.95 10.71, 19.95 10.71, 19.95 10.71 M6.07 33.13 C13.97 23.08, 21.77 14.58, 26.71 7.31 M5.69 33.12 C12.9 25.36, 17.15 19.68, 28.83 8.05 M6.2 40.7 C13.34 28.27, 24.02 18.46, 38.97 4.98 M5.45 39.86 C17.2 25.28, 29.22 12.2, 37.41 3.27 M5.09 48.2 C22.66 27.85, 36.71 9.19, 43.65 -1.65 M5.29 47.03 C15 34.27, 24.31 25.08, 45.77 -0.2 M2.22 58.1 C16.88 40.52, 30.06 22.76, 51.59 1.87 M-0.25 57.99 C12.67 43.72, 23.71 29.48, 50.99 0.6 M3.49 60.02 C21.2 38.09, 42.81 13.57, 55.85 2.52 M2.11 61.75 C19.87 42.37, 35.02 23.41, 54.19 2.09 M4.7 67.49 C21.67 47.06, 35.78 26.32, 60.16 0.29 M3.3 66.17 C17.78 51.54, 29.03 36.9, 60.4 1.19 M7.48 70.77 C27.29 44.61, 49.66 22.57, 64.59 2.74 M5.45 69.31 C25.69 48.1, 44.31 25.39, 63.82 2.32 M8.49 72.65 C29.99 49.69, 52.5 21.01, 69.79 3.94 M6.43 73.69 C29.65 50.67, 50.65 24.83, 69.55 2.86 M10.3 77.47 C33.62 51.92, 53.45 24.55, 74.11 4.25 M8.39 77.83 C26.5 56.89, 45.01 37.6, 72.14 5.44 M13.15 83.31 C35.73 57.01, 58.97 28.17, 74.49 8.56 M10.91 80.98 C36.4 52.86, 62.31 23.32, 76.06 6.68 M12.57 84.57 C31.71 65.47, 46.87 45.29, 78.84 10.29 M14.15 84.12 C36.18 58.55, 57.56 31.78, 79.53 9.67 M18.4 84.93 C38.39 65.29, 58.33 43.74, 80.38 13.12 M17.41 87.48 C39.13 62.01, 62.78 37.01, 82.39 12.23 M19.12 88.83 C38.93 64.44, 62.39 41.91, 85.31 15.3 M20.89 88.51 C39.85 67.86, 59.26 46.63, 85.23 15.68 M24.17 91.25 C45.03 66.41, 64.21 43.93, 87.77 18.59 M23.58 92.15 C45.19 66.98, 68 40.63, 87.92 18.31 M26.95 94.71 C43.28 76.88, 60.91 56.28, 88.9 21.28 M25.71 94.33 C43.15 76.43, 58.83 59.39, 90.1 20.92 M28.5 97.5 C53.96 70.5, 77.06 45.52, 95.8 23.2 M29.94 96.7 C50.49 75.28, 68.91 53.47, 93.66 24.26 M33.85 97.69 C49.38 82.92, 62.63 63.75, 95.22 28.21 M33.23 99.15 C51.71 76.47, 70.57 54.66, 95.95 28.11 M36.3 100.14 C57.67 75.62, 76.48 56.06, 96.5 32.69 M36.6 99.31 C57.49 79.08, 75.58 55.29, 98.21 32.17 M42.46 100.24 C61.96 75.76, 84.23 52.23, 98.65 35.06 M41.68 100.79 C63.03 77.63, 83.68 51.69, 98.13 36.18 M45.28 102.65 C59.32 86.23, 72.65 73.04, 102.64 39.26 M47.24 102.43 C60.37 85.97, 75.18 67.82, 99.68 39.84 M50.29 102.59 C66.26 83.04, 82.91 64.92, 101.75 44.55 M50.92 102.07 C66.69 85.35, 81.69 66.92, 100.93 45.1 M58.68 103.27 C70.31 90.18, 78.65 77.06, 100.59 50.43 M57.81 102.52 C75.06 82.31, 91.76 63.52, 100.54 51.63 M64.92 97.95 C74.38 88.69, 78.07 80.61, 97.99 57.19 M65.61 98.06 C74.92 86.48, 85.73 74.74, 100.25 59.83 M71.83 95.43 C80.66 87.55, 86.07 84.08, 100.8 64.9 M73.12 96.49 C82.37 87.41, 89.73 76.91, 98.08 66.34" stroke="#fa5252" stroke-width="0.5" fill="none"></path><path d="M71.87 3.81 C79.55 6.55, 86.38 14.75, 91.23 21.5 C96.09 28.26, 99.93 35.94, 101 44.35 C102.07 52.76, 100.98 64.08, 97.65 71.94 C94.33 79.81, 87.89 86.63, 81.05 91.51 C74.21 96.4, 65.01 100.29, 56.62 101.27 C48.23 102.24, 38.6 100.89, 30.7 97.37 C22.81 93.84, 14.28 86.82, 9.24 80.11 C4.2 73.41, 1.36 65.53, 0.46 57.14 C-0.45 48.74, 0.58 37.5, 3.84 29.75 C7.1 22, 13.06 15.68, 19.99 10.66 C26.92 5.64, 35.77 0.34, 45.4 -0.37 C55.03 -1.09, 71.69 4.36, 77.75 6.38 C83.81 8.41, 82.33 11.05, 81.76 11.79 M73.2 2.99 C80.84 5.86, 87.06 15.05, 91.79 21.92 C96.51 28.8, 100.58 36.2, 101.55 44.23 C102.52 52.26, 100.91 62.35, 97.6 70.11 C94.29 77.87, 88.75 85.79, 81.69 90.77 C74.63 95.75, 63.96 99.06, 55.21 100.01 C46.46 100.95, 36.76 99.95, 29.19 96.42 C21.62 92.89, 14.38 85.61, 9.8 78.83 C5.22 72.06, 2.37 63.9, 1.73 55.74 C1.1 47.58, 2.7 37.63, 5.99 29.86 C9.28 22.09, 15.04 14.18, 21.46 9.13 C27.87 4.08, 36 0.33, 44.46 -0.42 C52.92 -1.16, 67.78 3.49, 72.21 4.67 C76.64 5.84, 71.27 5.82, 71.02 6.61" stroke="#c92a2a" stroke-width="1" fill="none"></path></g><g transform="translate(717.4529460970282 1213.627895908314) rotate(0 28 23)"><text x="28" y="41" font-family="Cascadia, Segoe UI Emoji" font-size="18.729021403066273px" fill="#c92a2a" text-anchor="middle" style="white-space: pre;" direction="ltr">value</text></g><g stroke-linecap="round"><g transform="translate(664.7513377433959 829.9036289219641) rotate(0 -90.67292591654427 35.32020285187264)"><path d="M-0.36 0.68 C-30.88 12.49, -151.8 58.2, -182.05 69.7 M1.66 -0.01 C-29.12 12.01, -152.31 58.92, -183 70.65" stroke="#2b8a3e" stroke-width="1" fill="none"></path></g><g transform="translate(664.7513377433959 829.9036289219641) rotate(0 -90.67292591654427 35.32020285187264)"><path d="M-159.2 50.99 C-171.24 58.99, -180.13 67.71, -184.4 69.6 M-160.18 50.05 C-164.58 55.4, -169.71 59.86, -182.82 70.38" stroke="#2b8a3e" stroke-width="1" fill="none"></path></g><g transform="translate(664.7513377433959 829.9036289219641) rotate(0 -90.67292591654427 35.32020285187264)"><path d="M-151.88 70.17 C-166.6 70.64, -178.35 71.86, -184.4 69.6 M-152.86 69.22 C-158.82 70.2, -165.61 70.31, -182.82 70.38" stroke="#2b8a3e" stroke-width="1" fill="none"></path></g></g><mask></mask><g stroke-linecap="round"><g transform="translate(674.8241148546576 832.9133017610434) rotate(0 115.74458742476492 12.730766730536601)"><path d="M-0.03 0.33 C38.93 4.68, 194.2 22, 232.99 26.01 M-1.5 -0.55 C37.38 3.5, 193.22 20.16, 232.13 24.49" stroke="#2b8a3e" stroke-width="1" fill="none"></path></g><g transform="translate(674.8241148546576 832.9133017610434) rotate(0 115.74458742476492 12.730766730536601)"><path d="M203.54 31.93 C211.84 29.83, 216.05 28.62, 233.83 26.3 M202.12 30.96 C210.67 29.85, 220.19 28.2, 232.65 25.21" stroke="#2b8a3e" stroke-width="1" fill="none"></path></g><g transform="translate(674.8241148546576 832.9133017610434) rotate(0 115.74458742476492 12.730766730536601)"><path d="M205.76 11.52 C213.52 14.28, 217.2 17.91, 233.83 26.3 M204.34 10.56 C212.23 15.25, 221.12 19.41, 232.65 25.21" stroke="#2b8a3e" stroke-width="1" fill="none"></path></g></g><mask></mask><g stroke-linecap="round"><g transform="translate(330.99179354166654 814.2827175366422) rotate(0 73.15898975422078 43.69523004149639)"><path d="M0.21 0.89 C24.66 15.27, 122.84 71.85, 147.45 86.13 M-1.13 0.31 C23.14 14.81, 122 72.54, 146.81 87.08" stroke="#2b8a3e" stroke-width="1" fill="none"></path></g><g transform="translate(330.99179354166654 814.2827175366422) rotate(0 73.15898975422078 43.69523004149639)"><path d="M118.77 82.66 C126.1 85.32, 137.58 87.34, 146.91 88.86 M117.93 82.17 C125.27 82.93, 135.12 84.01, 146.09 86.7" stroke="#2b8a3e" stroke-width="1" fill="none"></path></g><g transform="translate(330.99179354166654 814.2827175366422) rotate(0 73.15898975422078 43.69523004149639)"><path d="M129.14 64.95 C132.69 74.04, 140.42 82.47, 146.91 88.86 M128.29 64.46 C132.62 70.59, 139.38 76.95, 146.09 86.7" stroke="#2b8a3e" stroke-width="1" fill="none"></path></g></g><mask></mask><g stroke-linecap="round"><g transform="translate(494.9885625357365 602.9570697717993) rotate(0 -79.04611670362914 30.198267119122875)"><path d="M-0.94 -1.11 C-27.33 9.15, -131.82 51.15, -157.73 61.51 M0.76 0.92 C-25.86 10.87, -132.62 50.26, -158.85 59.94" stroke="#2b8a3e" stroke-width="1" fill="none"></path></g><g transform="translate(494.9885625357365 602.9570697717993) rotate(0 -79.04611670362914 30.198267119122875)"><path d="M-137.81 39.99 C-142.15 48.74, -150.88 53, -157.81 59.6 M-135.34 40.23 C-143.2 48.29, -153.13 54.92, -158.15 59.62" stroke="#2b8a3e" stroke-width="1" fill="none"></path></g><g transform="translate(494.9885625357365 602.9570697717993) rotate(0 -79.04611670362914 30.198267119122875)"><path d="M-130.71 59.24 C-137.51 61.25, -148.7 58.84, -157.81 59.6 M-128.23 59.49 C-138.78 60.63, -151.29 60.27, -158.15 59.62" stroke="#2b8a3e" stroke-width="1" fill="none"></path></g></g><mask></mask><g stroke-linecap="round"><g transform="translate(496.5643340053555 602.0906488029734) rotate(0 83.62147455434001 41.14138319406081)"><path d="M-1.01 -0.57 C26.94 13.17, 140.14 69.06, 168.25 82.85 M0.66 1.75 C28.36 15.14, 138.81 67.6, 167.02 81.24" stroke="#2b8a3e" stroke-width="1" fill="none"></path></g><g transform="translate(496.5643340053555 602.0906488029734) rotate(0 83.62147455434001 41.14138319406081)"><path d="M136.22 77.44 C149.09 77.7, 158.19 81.27, 167.61 80.83 M137.65 79.25 C144.48 78.75, 152.42 79.82, 167.04 80.25" stroke="#2b8a3e" stroke-width="1" fill="none"></path></g><g transform="translate(496.5643340053555 602.0906488029734) rotate(0 83.62147455434001 41.14138319406081)"><path d="M145.09 58.93 C154.97 65.49, 161.02 75.42, 167.61 80.83 M146.51 60.74 C151.09 64.97, 156.77 70.76, 167.04 80.25" stroke="#2b8a3e" stroke-width="1" fill="none"></path></g></g><mask></mask><g stroke-linecap="round"><g transform="translate(698.1807663934507 319.49678416856193) rotate(0 -94.73921721453854 67.23970817401046)"><path d="M-1.16 0.4 C-32.68 22.7, -157.38 112.71, -188.73 134.92 M0.43 -0.44 C-31.32 22.02, -158.68 110.57, -189.91 133.07" stroke="#2b8a3e" stroke-width="1" fill="none"></path></g><g transform="translate(698.1807663934507 319.49678416856193) rotate(0 -94.73921721453854 67.23970817401046)"><path d="M-172.14 107.7 C-177.37 114.77, -185.18 124.99, -189.93 133.65 M-172.72 108.6 C-179.22 117.29, -184.07 124.44, -189.78 133.37" stroke="#2b8a3e" stroke-width="1" fill="none"></path></g><g transform="translate(698.1807663934507 319.49678416856193) rotate(0 -94.73921721453854 67.23970817401046)"><path d="M-160.3 124.46 C-169.61 125.86, -181.35 130.52, -189.93 133.65 M-160.89 125.37 C-171.33 128.41, -180.2 129.87, -189.78 133.37" stroke="#2b8a3e" stroke-width="1" fill="none"></path></g></g><mask></mask><g stroke-linecap="round"><g transform="translate(264.82603452033845 393.0959503386159) rotate(0 116.15228834206675 30.63983945520179)"><path d="M0.51 0.4 C39.27 10.65, 194.22 50.41, 232.99 60.71 M-0.69 -0.44 C37.86 10.01, 193.05 51.63, 231.87 61.72" stroke="#2b8a3e" stroke-width="1" fill="none"></path></g><g transform="translate(264.82603452033845 393.0959503386159) rotate(0 116.15228834206675 30.63983945520179)"><path d="M202.65 63.88 C210.27 63.08, 222.66 62.69, 233.16 61.85 M201.6 63.66 C211 64.12, 220.74 63.26, 231.88 61.03" stroke="#2b8a3e" stroke-width="1" fill="none"></path></g><g transform="translate(264.82603452033845 393.0959503386159) rotate(0 116.15228834206675 30.63983945520179)"><path d="M207.91 44.04 C213.64 49.85, 224.29 56.05, 233.16 61.85 M206.85 43.83 C214.68 50.25, 222.83 55.39, 231.88 61.03" stroke="#2b8a3e" stroke-width="1" fill="none"></path></g></g><mask></mask><g stroke-linecap="round"><g transform="translate(488.90334859679 1051.1855176443669) rotate(0 -5.819969440705506 57.16056075177272)"><path d="M0.15 0.71 C-1.53 19.61, -8.75 95.49, -10.63 114.29 M-1.23 0.04 C-3.05 18.56, -10.53 94.24, -11.79 112.79" stroke="#2b8a3e" stroke-width="1" fill="none"></path></g><g transform="translate(488.90334859679 1051.1855176443669) rotate(0 -5.819969440705506 57.16056075177272)"><path d="M-18.42 83.17 C-15.44 89.53, -14.84 96.48, -12.87 111.16 M-19.44 83.97 C-17.58 91.06, -15.94 96.78, -12.02 113.15" stroke="#2b8a3e" stroke-width="1" fill="none"></path></g><g transform="translate(488.90334859679 1051.1855176443669) rotate(0 -5.819969440705506 57.16056075177272)"><path d="M2.03 84.92 C-0.15 90.87, -4.69 97.37, -12.87 111.16 M1.01 85.72 C-1.94 92.49, -5.11 97.8, -12.02 113.15" stroke="#2b8a3e" stroke-width="1" fill="none"></path></g></g><mask></mask><g stroke-linecap="round"><g transform="translate(489.6988345155364 1053.6125097149375) rotate(0 129.18056891102566 59.60932981252)"><path d="M-0.67 -0.41 C42.53 19.55, 215.85 99.41, 259.03 119.43 M1.18 -1.66 C44.2 18.51, 214.58 100.43, 257.84 120.88" stroke="#2b8a3e" stroke-width="1" fill="none"></path></g><g transform="translate(489.6988345155364 1053.6125097149375) rotate(0 129.18056891102566 59.60932981252)"><path d="M227.3 117.22 C236.22 117.18, 245.15 119.56, 258.86 120.21 M228.75 118.56 C235.85 119.42, 242.14 119.98, 257.84 121.85" stroke="#2b8a3e" stroke-width="1" fill="none"></path></g><g transform="translate(489.6988345155364 1053.6125097149375) rotate(0 129.18056891102566 59.60932981252)"><path d="M236.14 98.7 C242.49 103.89, 248.91 111.55, 258.86 120.21 M237.59 100.04 C242.64 105.39, 246.81 110.39, 257.84 121.85" stroke="#2b8a3e" stroke-width="1" fill="none"></path></g></g><mask></mask><g stroke-linecap="round"><g transform="translate(910.3386146965449 1007.4337921133076) rotate(0 -80.25429833745409 84.92558124199479)"><path d="M-0.14 -0.55 C-26.56 27.44, -132.75 140.68, -159.42 168.83 M-1.67 1.77 C-28.17 29.9, -134.37 142.45, -160.37 170.41" stroke="#2b8a3e" stroke-width="1" fill="none"></path></g><g transform="translate(910.3386146965449 1007.4337921133076) rotate(0 -80.25429833745409 84.92558124199479)"><path d="M-149.49 142.8 C-150.92 147.81, -154.36 154.02, -159.36 170.94 M-148.34 143.78 C-151.21 150.93, -155.95 158.28, -160.19 170.47" stroke="#2b8a3e" stroke-width="1" fill="none"></path></g><g transform="translate(910.3386146965449 1007.4337921133076) rotate(0 -80.25429833745409 84.92558124199479)"><path d="M-134.53 156.84 C-139.44 158.65, -146.27 161.69, -159.36 170.94 M-133.37 157.82 C-140.71 161.04, -149.79 164.33, -160.19 170.47" stroke="#2b8a3e" stroke-width="1" fill="none"></path></g></g><mask></mask><g stroke-linecap="round" transform="translate(1103.2990557827545 753.6585580380489) rotate(0 50.910998813291144 50.68005174206152)"><path d="M12.34 18.68 C12.34 18.68, 12.34 18.68, 12.34 18.68 M12.34 18.68 C12.34 18.68, 12.34 18.68, 12.34 18.68 M4.38 31.73 C12.66 23.83, 20.09 17.33, 28.49 4.45 M4.53 33.28 C11.91 24.71, 18.15 18.61, 30.77 4.86 M1.51 43.57 C8.1 34.19, 16.94 25.63, 34.88 2.43 M2.29 42.95 C14.26 27.8, 27.51 12.69, 36.15 5.29 M0.73 50.01 C13.36 34.46, 25.44 21.36, 41.35 4.9 M2.97 47.83 C16.32 30.77, 31.35 13.07, 42.06 3.39 M3.46 53.62 C14.9 39.84, 26.8 28.38, 47.33 3.45 M2.16 53.36 C12.77 42.56, 20.37 31.91, 45.23 5.18 M5.06 57.98 C16.55 44.06, 34.05 24.63, 51.21 1.92 M3.6 60.42 C19.19 42.06, 32.47 25.59, 51.16 3.91 M1.84 65.2 C18.29 51.34, 32.76 32.63, 59.33 -0.31 M3.86 65.4 C23.61 40.38, 44.46 16.9, 58.57 1.81 M3.4 71.4 C22.25 48.99, 45.29 24.12, 61.78 4.98 M6.03 70.15 C23 48.79, 39.85 28.74, 62.76 3.88 M8.34 71.51 C28.44 46.91, 50.84 21.77, 68.48 4.19 M7.04 73.26 C29.49 48.7, 49.23 24.53, 67.11 5.81 M9.22 77.99 C29.05 52.93, 50.01 27.71, 70.37 6.83 M10.05 75.32 C24.28 59.74, 39.7 40.96, 69.87 7.27 M12.23 81.06 C28.34 61.44, 41.82 44.1, 74.35 9.88 M11.68 79.65 C37.12 52.4, 60.84 25.94, 74.51 8.95 M15.53 82.48 C37.19 58, 62.36 31.2, 78.31 10.91 M13.79 82.53 C37.52 57.68, 59.04 32.07, 78.29 10 M16.25 84.56 C37.46 64.72, 54 44.75, 82.74 12.24 M18 86.77 C35.3 65.72, 53.8 43.3, 81.4 10.82 M17.48 91.12 C31.54 76.33, 47.7 59.83, 86.49 13.72 M20.22 89.11 C35.23 72.62, 50.34 53.77, 84.14 14.28 M24.61 90.99 C45.16 68.38, 65.72 39.92, 87.01 15.75 M22.42 92.31 C40.6 70.51, 57.8 51.68, 86.74 17.25 M28.35 91.59 C50.56 67.13, 72.11 40.96, 88.7 19.24 M27.21 93.11 C43.81 72.28, 61.24 53.11, 89.16 21.07 M31.71 95.33 C44.5 75.86, 61.86 58.33, 93.94 22.64 M30.3 95.23 C49.09 75.45, 66.4 54.45, 93.65 23.05 M35.66 98.16 C48.75 77.86, 66.05 58.79, 96.11 25.18 M33.63 96.37 C47.37 81.83, 62.34 64.85, 95.24 26.29 M38.14 98.55 C60.11 73.07, 85.13 44.99, 98.53 31.37 M37.94 99.73 C54.62 79.01, 72.42 57.59, 98.2 30.56 M41.71 101.78 C60.98 82.3, 74.97 61.58, 99.47 34.26 M41.87 100.71 C56.45 84.45, 70.56 66.6, 100.58 32.15 M47.92 101.63 C57.18 87.69, 70.68 74.03, 99.25 36.94 M47.83 99.24 C57.92 88.05, 69.86 75.46, 100.74 37.85 M53.63 100.43 C69 80.63, 85.31 61.84, 101.07 46.25 M51.88 100.2 C63.93 87.73, 74.26 77.5, 101.72 45.13 M59.97 99.29 C72.71 84.24, 86.11 70.65, 101.46 51.58 M58.12 100.22 C72.55 83.2, 86.36 68.27, 101.19 49.5 M61.43 101.84 C78.65 81, 93.74 64.94, 103.92 54.85 M63.29 99.92 C72.37 90.14, 80.57 80.51, 102.59 54.91 M70.06 101.27 C77.97 90.86, 85.46 83.28, 102.58 58.74 M68.51 99.39 C79.56 87.94, 89.54 75.29, 102.3 60.56 M82.45 88.69 C85.78 87.17, 90.2 81.93, 96 74.31 M83.76 89.14 C86.65 84.96, 92.56 79.37, 96.92 72.96" stroke="#fa5252" stroke-width="0.5" fill="none"></path><path d="M59.19 1 C67.01 1.62, 75.97 7.19, 82.64 12.43 C89.3 17.68, 96.08 24.7, 99.19 32.48 C102.29 40.26, 102.71 50.68, 101.26 59.1 C99.8 67.53, 95.96 76.36, 90.45 83.03 C84.94 89.7, 76.35 96.37, 68.18 99.14 C60.01 101.92, 49.85 101.4, 41.43 99.67 C33 97.95, 23.98 94.02, 17.63 88.78 C11.28 83.54, 6.11 76.02, 3.34 68.24 C0.56 60.46, -0.51 50.36, 0.99 42.1 C2.48 33.85, 7.03 25.35, 12.32 18.71 C17.6 12.07, 24.01 5.13, 32.7 2.28 C41.38 -0.58, 58.8 1.3, 64.44 1.57 C70.08 1.83, 66.89 3.04, 66.52 3.89 M65.55 2.05 C73.22 3.64, 82.73 9.03, 88.64 15.49 C94.55 21.96, 99.23 32.46, 101.02 40.85 C102.8 49.23, 102.21 58.18, 99.37 65.82 C96.54 73.45, 90.41 81.16, 84.02 86.67 C77.63 92.18, 69.29 96.75, 61.03 98.89 C52.76 101.03, 42.47 101.7, 34.44 99.5 C26.4 97.3, 18.45 92.02, 12.84 85.67 C7.23 79.32, 2.52 69.97, 0.76 61.4 C-1 52.82, -0.33 42.07, 2.28 34.23 C4.9 26.39, 10.23 19.81, 16.44 14.34 C22.65 8.87, 31.37 3.51, 39.55 1.41 C47.73 -0.69, 60.9 1.48, 65.51 1.76 C70.13 2.03, 67.25 1.93, 67.22 3.07" stroke="#c92a2a" stroke-width="1" fill="none"></path></g><g transform="translate(1126.2100545960454 781.3386097801105) rotate(0 28 23)"><text x="28" y="41" font-family="Cascadia, Segoe UI Emoji" font-size="18.729021403066273px" fill="#c92a2a" text-anchor="middle" style="white-space: pre;" direction="ltr">value</text></g><g stroke-linecap="round" transform="translate(967.7419019614074 501.77998579507596) rotate(0 58.109375 58.109375000000014)"><path d="M4.01 11.44 C4.01 11.44, 4.01 11.44, 4.01 11.44 M4.01 11.44 C4.01 11.44, 4.01 11.44, 4.01 11.44 M3.75 17.83 C5.96 14.69, 12.64 11.17, 16.87 2.74 M3.75 17.83 C6.75 14.17, 10.23 10.59, 16.87 2.74 M2.83 24.99 C9.12 20.97, 10.38 15.49, 23.17 1.59 M2.83 24.99 C9.66 16.96, 16.79 9.89, 23.17 1.59 M2.57 31.38 C9.11 23.77, 17.59 15.07, 29.47 0.44 M2.57 31.38 C10.99 21.43, 18.79 13.59, 29.47 0.44 M2.31 37.78 C12.66 28.22, 17.71 18.1, 34.46 0.8 M2.31 37.78 C11.04 26.91, 21.06 16.18, 34.46 0.8 M2.7 43.43 C14.96 32.4, 24.08 19.99, 40.1 0.41 M2.7 43.43 C12.35 33.01, 23.06 20.99, 40.1 0.41 M2.44 49.82 C19.25 32.55, 32.12 15.75, 45.09 0.77 M2.44 49.82 C13.05 38.68, 22.22 27.68, 45.09 0.77 M2.84 55.47 C13 40.97, 28.22 28.19, 50.73 0.37 M2.84 55.47 C15.75 41.31, 28.02 26.65, 50.73 0.37 M2.57 61.86 C22.11 36.48, 43.11 15.48, 55.72 0.73 M2.57 61.86 C14.85 46.08, 27.43 31.4, 55.72 0.73 M2.31 68.26 C25.48 43.64, 46.69 13.48, 61.36 0.34 M2.31 68.26 C24.45 41.37, 47.44 16, 61.36 0.34 M2.71 73.9 C26.21 47.68, 44.86 23.83, 66.35 0.7 M2.71 73.9 C18.15 56.2, 32.98 38.33, 66.35 0.7 M2.45 80.3 C24.52 52.04, 48.35 25.91, 71.33 1.06 M2.45 80.3 C28.75 49.62, 53.89 19.43, 71.33 1.06 M0.87 88.21 C22.83 65.12, 41.97 38.51, 76.98 0.66 M0.87 88.21 C32.67 52.49, 61.27 19.41, 76.98 0.66 M1.92 93.1 C28 66.16, 51.29 35.69, 81.96 1.02 M1.92 93.1 C18.76 75.45, 34.13 56.66, 81.96 1.02 M2.32 98.74 C31.61 65.12, 60.7 35.3, 87.61 0.63 M2.32 98.74 C23.64 73.06, 46.86 48.56, 87.61 0.63 M4.68 102.12 C27.44 79.89, 48.94 55.39, 92.59 0.99 M4.68 102.12 C25.28 77.58, 46.12 53.06, 92.59 0.99 M6.39 106.25 C33.51 75.83, 60.64 42.6, 96.27 2.86 M6.39 106.25 C26.51 80.75, 49.72 55.65, 96.27 2.86 M8.75 109.63 C37.34 78.78, 62.94 45.38, 100.6 3.97 M8.75 109.63 C36.41 77.77, 61.95 46.32, 100.6 3.97 M11.77 112.26 C40.9 80.96, 68.22 48.18, 105.59 4.33 M11.77 112.26 C46.62 73.42, 79.57 35.38, 105.59 4.33 M15.44 114.13 C52.33 72.82, 87.5 29.02, 107.95 7.71 M15.44 114.13 C35.18 91.37, 54.32 70.48, 107.95 7.71 M19.78 115.24 C41.03 88.84, 62.6 65.98, 110.97 10.34 M19.78 115.24 C43.75 88.15, 66.93 61.28, 110.97 10.34 M23.45 117.11 C42.75 94.12, 62.7 68.88, 113.99 12.96 M23.45 117.11 C45.39 92.99, 66.24 69.32, 113.99 12.96 M29.09 116.72 C47.66 96.39, 64.7 72.32, 115.69 17.09 M29.09 116.72 C46.91 94.3, 66.9 72.53, 115.69 17.09 M34.08 117.08 C58.24 90.58, 82.21 66.48, 116.09 22.74 M34.08 117.08 C55.61 90.1, 77.52 64.84, 116.09 22.74 M39.72 116.68 C58.83 93.22, 82.13 66.65, 117.14 27.63 M39.72 116.68 C63.66 88.95, 88.62 59.69, 117.14 27.63 M44.71 117.04 C72.47 85.24, 99.65 50.98, 118.84 31.76 M44.71 117.04 C61.19 99.69, 75.47 80.85, 118.84 31.76 M49.7 117.4 C66.33 97.18, 84.18 79.21, 119.24 37.4 M49.7 117.4 C69.5 92.79, 91.13 69.14, 119.24 37.4 M55.34 117.01 C79.84 89.44, 100.9 64.39, 118.98 43.8 M55.34 117.01 C80.57 88.79, 104.76 58.7, 118.98 43.8 M60.33 117.37 C81.99 91.25, 101.74 67.89, 118.72 50.2 M60.33 117.37 C77.6 97.91, 95.45 75.5, 118.72 50.2 M65.97 116.97 C77.26 104.46, 89.02 89.18, 119.11 55.84 M65.97 116.97 C86.27 92.93, 106.59 69.78, 119.11 55.84 M70.96 117.33 C90.02 96.41, 107.37 75.31, 118.85 62.24 M70.96 117.33 C85.73 99.75, 99.69 83.99, 118.85 62.24 M76.6 116.94 C87.73 101.52, 104.33 88.29, 118.59 68.64 M76.6 116.94 C92.13 99.47, 107.71 80.49, 118.59 68.64 M81.59 117.3 C90.96 106.73, 100.42 92.62, 118.98 74.28 M81.59 117.3 C93.89 104.92, 104.84 92.27, 118.98 74.28 M87.23 116.9 C94.54 107.84, 98.05 100.31, 118.72 80.68 M87.23 116.9 C98.13 103.42, 110.33 91.44, 118.72 80.68 M93.53 115.75 C103.63 106.21, 113.72 95.92, 118.46 87.08 M93.53 115.75 C100.81 107.29, 108.99 98.81, 118.46 87.08 M99.83 114.61 C101.76 110.57, 108.31 104.46, 116.89 94.98 M99.83 114.61 C106.84 107.33, 113.18 99.17, 116.89 94.98" stroke="#4c6ef5" stroke-width="0.5" fill="none"></path><path d="M29.05 0 M29.05 0 C50.37 1.1, 74.02 -0.66, 87.16 0 M29.05 0 C50.77 -0.01, 73.53 0.25, 87.16 0 M87.16 0 C105.07 -0.3, 116.92 8.62, 116.22 29.05 M87.16 0 C105.38 2.11, 118.02 9.29, 116.22 29.05 M116.22 29.05 C114.91 41.1, 116.3 54.24, 116.22 87.16 M116.22 29.05 C116.56 44.06, 115.47 60.11, 116.22 87.16 M116.22 87.16 C115.82 108.04, 105.87 117.18, 87.16 116.22 M116.22 87.16 C114.53 104.86, 107.11 117.19, 87.16 116.22 M87.16 116.22 C66.95 117.61, 47.93 116, 29.05 116.22 M87.16 116.22 C75.01 115.13, 62.3 115.42, 29.05 116.22 M29.05 116.22 C9.99 114.88, -1.08 104.81, 0 87.16 M29.05 116.22 C9.76 114.23, -0.92 106.03, 0 87.16 M0 87.16 C1.21 73.01, -0.65 55.79, 0 29.05 M0 87.16 C-0.05 68.56, -0.51 48.05, 0 29.05 M0 29.05 C0.71 11.21, 9.13 -0.15, 29.05 0 M0 29.05 C-1.75 11.48, 7.88 1.08, 29.05 0" stroke="#364fc7" stroke-width="1" fill="none"></path></g><g transform="translate(978.3512769614074 547.889360795076) rotate(0 47.5 12)"><text x="47.5" y="20" font-family="Cascadia, Segoe UI Emoji" font-size="20px" fill="#364fc7" text-anchor="middle" style="white-space: pre;" direction="ltr">computed</text></g><g stroke-linecap="round"><g transform="translate(707.525898354744 318.7537648587377) rotate(0 159.81498385811835 85.01658939883478)"><path d="M0.31 -0.73 C53.55 27.73, 265.38 142.5, 318.36 170.77 M-0.99 1.49 C52.72 29.65, 267.03 141.12, 320.62 169.16" stroke="#2b8a3e" stroke-width="1" fill="none"></path></g><g transform="translate(707.525898354744 318.7537648587377) rotate(0 159.81498385811835 85.01658939883478)"><path d="M289.65 163.78 C298.81 164.26, 301.97 164.9, 318.95 170.98 M291.83 164.35 C299.24 167.26, 309.68 167.41, 320.37 168.18" stroke="#2b8a3e" stroke-width="1" fill="none"></path></g><g transform="translate(707.525898354744 318.7537648587377) rotate(0 159.81498385811835 85.01658939883478)"><path d="M299.14 145.58 C306.29 149.94, 307.43 154.43, 318.95 170.98 M301.32 146.16 C305.77 154.71, 313.28 160.5, 320.37 168.18" stroke="#2b8a3e" stroke-width="1" fill="none"></path></g></g><mask></mask><g stroke-linecap="round"><g transform="translate(1023.8073385612818 635.8151983263931) rotate(0 66.88549847976583 54.25340726337001)"><path d="M0.71 0.42 C23.13 18.5, 112.2 89.49, 134.15 107.62 M-0.37 -0.41 C21.97 17.92, 111.02 90.94, 133.53 108.92" stroke="#2b8a3e" stroke-width="1" fill="none"></path></g><g transform="translate(1023.8073385612818 635.8151983263931) rotate(0 66.88549847976583 54.25340726337001)"><path d="M105.87 100.19 C112.01 99.75, 122.35 102.27, 135.03 110.64 M105.26 99.36 C111.71 102.01, 119.57 103.66, 133.19 107.94" stroke="#2b8a3e" stroke-width="1" fill="none"></path></g><g transform="translate(1023.8073385612818 635.8151983263931) rotate(0 66.88549847976583 54.25340726337001)"><path d="M118.79 84.25 C121.32 88.2, 128.16 95.04, 135.03 110.64 M118.19 83.42 C121.39 90.07, 126.1 95.6, 133.19 107.94" stroke="#2b8a3e" stroke-width="1" fill="none"></path></g></g><mask></mask><g stroke-linecap="round"><g transform="translate(1158.4342093703483 873.501339719011) rotate(0 -177.0935674644553 -373.4462310499769)"><path d="M-0.82 -0.15 C11.55 0.2, 59.26 30.22, 74.89 2.85 C90.53 -24.52, 119.4 -73.63, 92.98 -164.34 C66.56 -255.05, -6.47 -443.36, -83.62 -541.42 C-160.77 -639.47, -307.54 -722.34, -369.92 -752.69 C-432.3 -783.05, -443.38 -728.22, -457.87 -723.57 M0.95 -1.27 C13.08 -0.79, 58.61 31.89, 73.81 4.37 C89.01 -23.16, 118.28 -75.64, 92.15 -166.43 C66.02 -257.21, -6.28 -442.6, -82.99 -540.35 C-159.71 -638.1, -305.86 -722.25, -368.14 -752.92 C-430.42 -783.6, -442.05 -729.4, -456.68 -724.4" stroke="#c92a2a" stroke-width="1" fill="none"></path></g><g transform="translate(1158.4342093703483 873.501339719011) rotate(0 -177.0935674644553 -373.4462310499769)"><path d="M-444.6 -752.17 C-448.61 -742.35, -452.08 -731.27, -456.8 -725.69 M-443.85 -752.43 C-447.04 -745.54, -449.04 -739.97, -456.18 -724.26" stroke="#c92a2a" stroke-width="1" fill="none"></path></g><g transform="translate(1158.4342093703483 873.501339719011) rotate(0 -177.0935674644553 -373.4462310499769)"><path d="M-429.9 -737.85 C-439.21 -733.2, -447.89 -727.19, -456.8 -725.69 M-429.16 -738.1 C-435.26 -734.06, -440.22 -731.37, -456.18 -724.26" stroke="#c92a2a" stroke-width="1" fill="none"></path></g></g><mask></mask><g stroke-linecap="round"><g transform="translate(478.06522095202627 1290.7337474501003) rotate(0 -200.83530180982032 -525.4093594961804)"><path d="M1.19 0.7 C-8.11 4.95, -12.29 76.47, -56.84 26.67 C-101.38 -23.12, -208.91 -164.3, -266.09 -298.07 C-323.26 -431.83, -385.89 -645.97, -399.89 -775.9 C-413.9 -905.82, -375.21 -1029.6, -350.12 -1077.62 C-325.03 -1125.64, -266.13 -1066.35, -249.34 -1064.03 M0.36 0.02 C-8.93 4.96, -12.71 78.11, -57.28 28.11 C-101.86 -21.88, -210.08 -166.08, -267.09 -299.98 C-324.1 -433.88, -385.25 -645.78, -399.34 -775.29 C-413.42 -904.8, -376.8 -1028.75, -351.6 -1077.04 C-326.4 -1125.33, -265.25 -1067.06, -248.14 -1065.03" stroke="#c92a2a" stroke-width="1" fill="none"></path></g><g transform="translate(478.06522095202627 1290.7337474501003) rotate(0 -200.83530180982032 -525.4093594961804)"><path d="M-276.78 -1066.91 C-271.76 -1068.82, -263.65 -1066.33, -249.73 -1065.08 M-278.3 -1068.2 C-268.12 -1068.23, -257.9 -1066.87, -248.69 -1064.04" stroke="#c92a2a" stroke-width="1" fill="none"></path></g><g transform="translate(478.06522095202627 1290.7337474501003) rotate(0 -200.83530180982032 -525.4093594961804)"><path d="M-267.57 -1085.25 C-264.37 -1083.1, -258.25 -1076.63, -249.73 -1065.08 M-269.1 -1086.54 C-262.01 -1080.52, -254.83 -1073.11, -248.69 -1064.04" stroke="#c92a2a" stroke-width="1" fill="none"></path></g></g><mask></mask><g stroke-linecap="round"><g transform="translate(750.9127845332021 1302.507167334488) rotate(0 -364.8552527898229 -547.3276281987521)"><path d="M0.93 -0.89 C-2.46 13.49, 37.49 77.4, -20.56 86.38 C-78.6 95.36, -247.89 118.7, -347.34 52.98 C-446.79 -12.75, -551.93 -166.76, -617.28 -307.98 C-682.62 -449.2, -734.18 -650.91, -739.41 -794.36 C-744.64 -937.81, -697.99 -1110.11, -648.64 -1168.68 C-599.3 -1227.25, -469.74 -1161.44, -443.36 -1145.79 C-416.98 -1130.14, -482.71 -1086.41, -490.35 -1074.77 M-0.04 1.26 C-3.5 15.73, 36.91 78.47, -21.14 87.29 C-79.19 96.12, -249.08 119.93, -348.34 54.23 C-447.6 -11.47, -551.34 -165.56, -616.69 -306.89 C-682.04 -448.22, -734.82 -650.01, -740.45 -793.76 C-746.08 -937.51, -699.57 -1110.5, -650.47 -1169.37 C-601.37 -1228.24, -472.34 -1162.74, -445.85 -1146.98 C-419.36 -1131.21, -484.11 -1086.94, -491.54 -1074.76" stroke="#c92a2a" stroke-width="1" fill="none"></path></g><g transform="translate(750.9127845332021 1302.507167334488) rotate(0 -364.8552527898229 -547.3276281987521)"><path d="M-480.22 -1100.73 C-484.27 -1094.93, -486.09 -1085.5, -491.58 -1073.38 M-477.9 -1101.64 C-483.08 -1092.23, -486.39 -1084.15, -491.29 -1074.74" stroke="#c92a2a" stroke-width="1" fill="none"></path></g><g transform="translate(750.9127845332021 1302.507167334488) rotate(0 -364.8552527898229 -547.3276281987521)"><path d="M-465.77 -1086.15 C-473.89 -1084.33, -479.76 -1078.99, -491.58 -1073.38 M-463.46 -1087.07 C-473.55 -1082.43, -481.68 -1079.21, -491.29 -1074.74" stroke="#c92a2a" stroke-width="1" fill="none"></path></g></g><mask></mask><g stroke-linecap="round"><g transform="translate(765.2485831422189 1303.164338607497) rotate(0 276.71949171446664 -590.4142997085294)"><path d="M-0.98 -0.52 C9.92 10.97, -4.73 75.43, 66.06 67.98 C136.86 60.52, 330.98 28.59, 423.77 -45.23 C516.56 -119.05, 610.82 -242.69, 622.82 -374.95 C634.82 -507.21, 562.65 -709.28, 495.77 -838.79 C428.88 -968.31, 306.88 -1083.87, 221.51 -1152.06 C136.14 -1220.25, 32.26 -1248.45, -16.45 -1247.92 C-65.15 -1247.4, -61.64 -1165.67, -70.7 -1148.91 M0.7 1.83 C11.46 13.05, -4.81 74.38, 65.55 66.2 C135.91 58.03, 330.02 26.68, 422.87 -47.22 C515.71 -121.13, 610.67 -245.39, 622.63 -377.22 C634.58 -509.06, 561.28 -708.92, 494.59 -838.24 C427.91 -967.56, 308.08 -1084.63, 222.49 -1153.16 C136.91 -1221.69, 29.56 -1250, -18.91 -1249.39 C-67.39 -1248.78, -59.97 -1166.36, -68.35 -1149.48" stroke="#c92a2a" stroke-width="1" fill="none"></path></g><g transform="translate(765.2485831422189 1303.164338607497) rotate(0 276.71949171446664 -590.4142997085294)"><path d="M-74.31 -1177.67 C-70.77 -1168.94, -68.96 -1159.41, -67.47 -1148.54 M-72.58 -1179.24 C-72.44 -1169.77, -70.89 -1158.8, -67.73 -1149.54" stroke="#c92a2a" stroke-width="1" fill="none"></path></g><g transform="translate(765.2485831422189 1303.164338607497) rotate(0 276.71949171446664 -590.4142997085294)"><path d="M-54.11 -1174.03 C-57.72 -1166.75, -63.08 -1158.53, -67.47 -1148.54 M-52.38 -1175.6 C-58.81 -1167.34, -63.85 -1157.56, -67.73 -1149.54" stroke="#c92a2a" stroke-width="1" fill="none"></path></g></g><mask></mask><g stroke-linecap="round"><g transform="translate(487.5692164259218 1282.380548922944) rotate(0 469.3248100885824 -548.0851288734043)"><path d="M-0.07 1.15 C5.31 28.71, -80.37 147.8, 32.37 165.65 C145.12 183.5, 521.67 184.05, 676.38 108.26 C831.1 32.47, 936.73 -130.24, 960.66 -289.09 C984.59 -447.94, 901.89 -688.36, 819.98 -844.85 C738.07 -1001.33, 572.13 -1160.06, 469.21 -1227.99 C366.28 -1295.93, 248.04 -1270.27, 202.44 -1252.46 C156.84 -1234.65, 196.91 -1142.85, 195.61 -1121.15 M-1.56 0.71 C4.2 28.46, -78.61 149.68, 34.76 167.27 C148.14 184.86, 524.43 182.2, 678.69 106.27 C832.96 30.34, 937 -129.78, 960.37 -288.31 C983.73 -446.83, 900.61 -688.13, 818.88 -844.87 C737.15 -1001.62, 572.73 -1161.19, 470 -1228.8 C367.27 -1296.41, 248.33 -1268.46, 202.52 -1250.52 C156.71 -1232.59, 196.73 -1142.9, 195.15 -1121.2" stroke="#c92a2a" stroke-width="1" fill="none"></path></g><g transform="translate(487.5692164259218 1282.380548922944) rotate(0 469.3248100885824 -548.0851288734043)"><path d="M181.82 -1148.05 C184.96 -1140.87, 190.53 -1132.72, 194.13 -1120.02 M179.01 -1147.63 C184.11 -1140.59, 186.87 -1135.5, 195.58 -1122.09" stroke="#c92a2a" stroke-width="1" fill="none"></path></g><g transform="translate(487.5692164259218 1282.380548922944) rotate(0 469.3248100885824 -548.0851288734043)"><path d="M201.99 -1151.81 C198.89 -1143.48, 198.22 -1134.17, 194.13 -1120.02 M199.18 -1151.39 C199.53 -1143.4, 197.58 -1137.43, 195.58 -1122.09" stroke="#c92a2a" stroke-width="1" fill="none"></path></g></g><mask></mask></svg>
